<?xml version="1.0" encoding="UTF-8" standalone="no"?>
<!-- Created with Inkscape (http://www.inkscape.org/) -->

<svg
   xmlns:dc="http://purl.org/dc/elements/1.1/"
   xmlns:cc="http://creativecommons.org/ns#"
   xmlns:rdf="http://www.w3.org/1999/02/22-rdf-syntax-ns#"
   xmlns:svg="http://www.w3.org/2000/svg"
   xmlns="http://www.w3.org/2000/svg"
   xmlns:sodipodi="http://sodipodi.sourceforge.net/DTD/sodipodi-0.dtd"
   xmlns:inkscape="http://www.inkscape.org/namespaces/inkscape"
   width="744.09448819"
   height="1052.3622047"
   id="svg4563"
   version="1.1"
   inkscape:version="0.48.4 r9939"
   sodipodi:docname="New document 3">
  <defs
     id="defs4565" />
  <sodipodi:namedview
     id="base"
     pagecolor="#ffffff"
     bordercolor="#666666"
     borderopacity="1.0"
     inkscape:pageopacity="0.0"
     inkscape:pageshadow="2"
     inkscape:zoom="1.4"
     inkscape:cx="206.31004"
     inkscape:cy="460.42378"
     inkscape:document-units="px"
     inkscape:current-layer="layer1"
     showgrid="false"
     inkscape:window-width="1855"
     inkscape:window-height="1056"
     inkscape:window-x="65"
     inkscape:window-y="24"
     inkscape:window-maximized="1" />
  <metadata
     id="metadata4568">
    <rdf:RDF>
      <cc:Work
         rdf:about="">
        <dc:format>image/svg+xml</dc:format>
        <dc:type
           rdf:resource="http://purl.org/dc/dcmitype/StillImage" />
        <dc:title></dc:title>
      </cc:Work>
    </rdf:RDF>
  </metadata>
  <g
     inkscape:label="Layer 1"
     inkscape:groupmode="layer"
     id="layer1">
    <path
       style="fill:#000000;fill-opacity:1;stroke:#000000;stroke-width:1;stroke-linecap:square;stroke-linejoin:round;stroke-miterlimit:1;stroke-opacity:1;stroke-dasharray:none"
       id="path5097"
       d="m 222.87437,446.62006 c -0.57821,-1.51429 -1.21384,-3.00719 -1.6818,-4.56039 -0.11659,-0.41451 -0.23215,-0.83064 -0.30263,-1.25581 2.22791,-2.1303 2.50393,-3.30111 2.51492,-1.35938 -0.3445,1.91965 -0.49494,3.86085 -0.60146,5.80581 -0.0882,2.80206 -0.10224,5.59669 -0.34075,8.39101 -0.26356,2.91292 -0.39394,5.83461 -0.46399,8.7578 -0.0536,3.1423 -0.0487,6.28523 -0.0491,9.42787 -0.18287,3.37534 -0.43916,6.7452 -0.58069,10.12292 -0.11001,2.95887 -0.12271,5.92008 -0.1314,8.88061 -0.004,2.88406 -7.1e-4,5.76812 7.7e-4,8.65218 0.009,3.11309 -0.34231,6.21361 -0.51553,9.32031 -0.15324,3.06178 -0.17908,6.12778 -0.19526,9.19273 -0.0101,3.20302 -0.006,6.40606 -0.004,9.60909 -0.006,2.9884 0.35191,5.96264 0.5204,8.94468 0.0551,3.18026 0.26503,6.34588 0.51909,9.51525 0.26321,3.24164 0.32881,6.49423 0.37147,9.74481 0.006,3.26316 -0.0164,6.51802 0.2288,9.77304 0.27918,3.23512 0.39297,6.47978 0.46051,9.72509 0.0495,2.95453 0.0499,5.90958 0.0506,8.86443 0.13072,2.10522 0.4006,4.19821 0.58084,6.29938 0.11062,1.36941 0.12293,2.7438 0.13138,4.1168 0.004,1.40617 7.7e-4,2.81235 -7.7e-4,4.21852 -7.4e-4,0.71303 -0.001,1.42606 -0.002,2.1391 -2.66447,4.09801 -2.48105,2.83089 -2.48104,1.02753 0,0 2.48092,-2.56907 2.48092,-2.56907 l 0,0 c 0,0.62618 0.0607,8.44175 -2.4808,4.11061 6.3e-4,-0.71304 0.001,-1.42607 0.002,-2.1391 0.002,-1.40617 0.005,-2.81235 7.7e-4,-4.21852 -0.008,-1.373 -0.0208,-2.74739 -0.13138,-4.1168 -0.18024,-2.10117 -0.45012,-4.19416 -0.58084,-6.29938 -6.8e-4,-2.95485 -0.001,-5.9099 -0.0506,-8.86443 -0.0675,-3.24531 -0.18133,-6.48997 -0.4605,-9.72509 -0.24523,-3.25502 -0.22322,-6.50988 -0.22881,-9.77304 -0.0426,-3.25058 -0.10825,-6.50317 -0.37146,-9.74481 -0.25406,-3.16937 -0.46397,-6.33499 -0.51909,-9.51525 -0.1685,-2.98204 -0.52622,-5.95628 -0.52041,-8.94467 -0.002,-3.20304 -0.006,-6.40608 0.004,-9.6091 0.0162,-3.06495 0.042,-6.13095 0.19526,-9.19273 0.17321,-3.1067 0.52502,-6.20722 0.51553,-9.32031 -0.001,-2.88406 -0.005,-5.76812 -7.7e-4,-8.65218 0.009,-2.96053 0.0214,-5.92174 0.1314,-8.88061 0.14153,-3.37772 0.39782,-6.74758 0.58069,-10.12292 3.6e-4,-3.14264 -0.005,-6.28556 0.0491,-9.42787 0.0701,-2.92319 0.20043,-5.84487 0.46399,-8.7578 0.23851,-2.79431 0.25258,-5.58895 0.34075,-8.391 0.10651,-1.94497 0.25696,-3.88617 0.60146,-5.80582 -0.009,-1.63621 0.47329,-2.97378 2.44692,-3.77877 0.0705,0.42518 0.18604,0.84131 0.30263,1.25582 0.46796,1.5532 1.10359,3.0461 1.6818,4.56039 0,0 -2.48092,2.56907 -2.48092,2.56907 z"
       inkscape:connector-curvature="0" />
    <path
       style="fill:#000000;fill-opacity:1;stroke:#000000;stroke-width:1;stroke-linecap:square;stroke-linejoin:round;stroke-miterlimit:1;stroke-opacity:1;stroke-dasharray:none"
       id="path5099"
       d="m 197.63827,576.96281 c 2.64876,0.67269 5.37432,0.91845 8.09305,1.09697 3.16171,-0.0296 6.31536,-0.28869 9.47423,-0.41463 3.25705,-0.34612 6.53062,-0.50102 9.79021,-0.80907 3.70763,-0.3194 7.39425,-0.81615 11.10396,-1.11346 3.47628,-0.40731 6.95598,-0.75671 10.45144,-0.94171 2.60871,-0.12454 5.22088,-0.13457 7.83197,-0.14027 2.69519,-0.0254 5.35852,0.43217 8.05309,0.43803 3.1495,-0.12362 6.29731,-0.27107 9.44846,-0.35054 3.24869,-0.0677 6.4982,-0.0755 9.74747,-0.0808 2.95013,-0.003 5.90027,-6.4e-4 8.85041,3.7e-4 2.79817,0.034 5.5859,0.0303 8.3751,-0.20209 2.84326,-0.27787 5.69718,-0.39636 8.55198,-0.46463 3.05122,-0.24445 6.09977,-0.49806 9.1581,-0.63611 3.05445,-0.013 6.09108,-0.34018 9.13453,-0.55867 2.99616,-0.19119 5.99846,-0.24426 8.9998,-0.27274 2.62427,0.0835 5.22788,-0.0848 7.83742,-0.33465 2.59546,-0.25806 5.20379,-0.3212 7.80992,-0.36367 2.72008,-0.21038 5.4343,-0.47352 8.15952,-0.61265 2.40392,-0.10993 4.81081,-0.12028 7.21677,-0.1285 2.19011,-0.004 4.38022,-2e-4 6.57033,0.001 2.18974,0.0269 4.36745,0.0413 6.54531,-0.20129 1.72461,-0.23689 3.45667,-0.39373 5.19563,-0.46459 1.66199,-0.0748 3.30133,0.29676 4.94919,0.46634 1.80308,0.16421 3.61484,0.18292 5.42399,0.1994 1.94032,0.21721 3.87395,0.46116 5.82315,0.59016 2.44744,0.12596 4.89924,0.1227 7.34921,0.12964 2.90604,0.0298 5.79788,-0.33075 8.69489,-0.51865 2.19353,-0.13902 4.39131,-0.17786 6.58857,-0.19747 1.84344,-0.0104 3.68693,-0.006 5.53038,-0.004 1.62828,-0.0336 3.22919,0.3304 4.84053,0.52043 1.51988,0.14237 3.0472,0.17668 4.57277,0.19563 1.34793,0.0102 2.69592,0.006 4.04387,0.004 1.24302,-0.002 2.48603,-0.002 3.72905,-0.003 0.71661,-2.7e-4 1.43323,-2.4e-4 2.14984,-2.4e-4 0.75905,0.0327 1.4702,0.0243 2.19584,-0.20335 0.91331,-0.3653 1.89754,-0.41612 2.86785,-0.4647 1.54889,-0.0534 3.09902,-0.0506 4.64862,-0.0513 1.22116,5.4e-4 2.44232,0.002 3.66349,0.004 0.55329,8.2e-4 1.10658,10e-4 1.65987,0.001 1.48041,0.0809 2.93984,-0.14706 4.40482,-0.32346 1.57501,-0.17305 3.15561,-0.28578 4.73773,-0.36724 0.13854,0.0531 1.00239,-0.17511 0.94822,0.0572 -2.89333,2.86318 -1.56708,2.30196 -3.19028,2.91331 0,0 2.48093,-2.56907 2.48093,-2.56907 l 0,0 c 1.40088,-0.52762 0.49313,-0.25432 -1.77157,2.22483 0.0542,-0.23234 -0.80968,-0.004 -0.94822,-0.0572 -1.58213,0.0815 -3.16272,0.19419 -4.73773,0.36724 -1.46498,0.1764 -2.92442,0.40434 -4.40482,0.32346 -0.55329,-6e-5 -1.10658,-2.4e-4 -1.65987,-0.001 -1.22117,-0.002 -2.44233,-0.003 -3.6635,-0.004 -1.5496,6.4e-4 -3.09972,-0.002 -4.64861,0.0513 -0.97031,0.0486 -1.95454,0.0994 -2.86785,0.4647 -0.72564,0.22767 -1.43679,0.2361 -2.19584,0.20335 -0.71662,0 -1.43323,-2e-5 -2.14985,2.4e-4 -1.24301,4.8e-4 -2.48603,0.001 -3.72904,0.003 -1.34795,0.002 -2.69594,0.006 -4.04387,-0.004 -1.52558,-0.019 -3.0529,-0.0533 -4.57277,-0.19563 -1.61134,-0.19003 -3.21226,-0.55408 -4.84053,-0.52043 -1.84346,-0.002 -3.68694,-0.006 -5.53038,0.004 -2.19727,0.0196 -4.39504,0.0584 -6.58857,0.19748 -2.89701,0.18789 -5.78886,0.54839 -8.69489,0.51864 -2.44998,-0.007 -4.90178,-0.004 -7.34922,-0.12964 -1.94919,-0.129 -3.88282,-0.37295 -5.82315,-0.59016 -1.80914,-0.0165 -3.6209,-0.0352 -5.42398,-0.1994 -1.64786,-0.16958 -3.28721,-0.5411 -4.94919,-0.46633 -1.73896,0.0709 -3.47102,0.22769 -5.19564,0.46458 -2.17786,0.24261 -4.35557,0.22823 -6.5453,0.20129 -2.19011,-0.002 -4.38023,-0.005 -6.57034,-0.001 -2.40595,0.008 -4.81285,0.0186 -7.21677,0.1285 -2.72521,0.13913 -5.43943,0.40227 -8.15952,0.61265 -2.60612,0.0425 -5.21445,0.10561 -7.80991,0.36367 -2.60954,0.24984 -5.21316,0.41813 -7.83742,0.33465 -3.00134,0.0285 -6.00364,0.0816 -8.9998,0.27274 -3.04345,0.21849 -6.08008,0.54565 -9.13453,0.55867 -3.05833,0.13805 -6.10688,0.39166 -9.1581,0.63611 -2.85481,0.0683 -5.70872,0.18676 -8.55198,0.46463 -2.7892,0.23235 -5.57693,0.23612 -8.37511,0.20209 -2.95013,-0.001 -5.90027,-0.003 -8.8504,-3.7e-4 -3.24927,0.005 -6.49878,0.0131 -9.74747,0.0808 -3.15115,0.0795 -6.29896,0.22692 -9.44846,0.35054 -2.69457,-0.006 -5.35791,-0.4634 -8.05309,-0.43803 -2.61109,0.006 -5.22326,0.0157 -7.83198,0.14027 -3.49545,0.185 -6.97515,0.5344 -10.45143,0.94171 -3.70972,0.29731 -7.39634,0.79406 -11.10396,1.11346 -3.2596,0.30805 -6.53316,0.46295 -9.79022,0.80908 -3.15886,0.12593 -6.31251,0.38499 -9.47423,0.41462 -2.71872,-0.17852 -5.44429,-0.42428 -8.09304,-1.09697 0,0 2.48092,-2.56907 2.48092,-2.56907 z"
       inkscape:connector-curvature="0" />
    <path
       style="fill:#000000;fill-opacity:1;stroke:#000000;stroke-width:1;stroke-linecap:square;stroke-linejoin:round;stroke-miterlimit:1;stroke-opacity:1;stroke-dasharray:none"
       id="path5101"
       d="m 452.46739,561.50485 c 2.79625,1.74751 5.84625,3.04354 8.88483,4.30259 3.15805,1.19998 6.37796,2.22068 9.57404,3.30919 1.4028,0.37146 2.6636,1.09016 4.00426,1.6149 0.73179,0.24146 1.49842,0.31488 2.26343,0.3522 0.63627,0.0127 1.2728,0.003 1.90915,-2.9e-4 0.6948,-0.15249 1.349,-0.43049 2.04168,-0.59036 0.48364,-0.0816 0.90244,-0.37113 1.29587,-0.65039 -0.0893,0.0841 0.20188,-0.1621 0.15411,-0.11836 -2.81144,2.57393 -1.85868,2.64252 -4.15714,2.56591 -1.90685,0.17619 -3.75839,0.60036 -5.59419,1.13161 -3.63759,1.07193 -7.12642,2.57205 -10.5992,4.0808 -2.59551,1.10621 -5.1399,2.38136 -7.34419,4.1578 -0.15442,0.13852 -0.30884,0.27703 -0.46326,0.41555 0.72277,-0.72447 1.41977,-1.47559 2.16829,-2.17341 0.21754,-0.20281 -0.31722,0.48576 -0.41501,0.95507 0.002,0.14465 -0.0569,0.30162 0.11483,0.15167 0.36539,-0.34672 0.90327,-0.41029 1.35803,-0.5954 0,0 -2.48092,2.56907 -2.48092,2.56907 l 0,0 c -0.45476,0.18511 -0.99265,0.24868 -1.35803,0.5954 -0.17177,0.14995 -0.11242,-0.007 -0.11483,-0.15167 0.39455,-1.89363 2.36996,-3.03255 3.67183,-4.33535 2.20429,-1.77644 4.74868,-3.05159 7.34418,-4.1578 3.47279,-1.50875 6.96161,-3.00887 10.5992,-4.08081 1.8358,-0.53124 3.68735,-0.95542 5.5942,-1.1316 2.15805,0.0719 2.32653,-0.11123 -0.95882,2.69059 -0.39344,0.27926 -0.81223,0.56882 -1.29587,0.65039 -0.69268,0.15987 -1.34688,0.43787 -2.04168,0.59036 -0.63635,0.003 -1.27288,0.013 -1.90916,2.9e-4 -0.76501,-0.0373 -1.53163,-0.11074 -2.26342,-0.3522 -1.34066,-0.52474 -2.60146,-1.24344 -4.00426,-1.6149 -3.19608,-1.08851 -6.41599,-2.10921 -9.57405,-3.30919 -3.03857,-1.25905 -6.08858,-2.55508 -8.88482,-4.30259 0,0 2.48092,-2.56907 2.48092,-2.56907 z"
       inkscape:connector-curvature="0" />
    <path
       style="fill:#000000;fill-opacity:1;stroke:#000000;stroke-width:1;stroke-linecap:square;stroke-linejoin:round;stroke-miterlimit:1;stroke-opacity:1;stroke-dasharray:none"
       id="path5103"
       d="m 219.55557,428.90403 c -1.15038,2.99692 -2.55227,5.88589 -3.70502,8.88126 -1.06797,2.89418 -2.29852,5.72324 -3.42569,8.59463 -0.62847,1.42058 -1.15413,2.88939 -2.0621,4.16063 -0.44551,0.96146 -2.7876,4.81488 -3.09398,3.01318 -0.0222,-0.20282 -0.0232,-0.40812 0.0346,-0.60435 0.76916,-0.50828 6.39547,-6.17902 0.76523,-0.4282 0.18033,-0.33459 0.33484,-0.67817 0.51484,-1.01323 0,0 2.48092,-2.56907 2.48092,-2.56907 l 0,0 c -0.18,0.33506 -0.3345,0.67864 -0.51484,1.01323 -0.57091,0.59825 -6.29558,6.64217 -0.76522,0.4282 -0.0579,0.19623 -0.0568,0.40153 -0.0346,0.60434 0.26265,1.54455 -3.57315,4.70991 -1.86787,2.12497 0.90796,-1.27124 1.43363,-2.74005 2.06209,-4.16063 1.12718,-2.87138 2.35773,-5.70045 3.4257,-8.59463 1.15275,-2.99537 2.55464,-5.88434 3.70501,-8.88126 0,0 2.48093,-2.56907 2.48093,-2.56907 z"
       inkscape:connector-curvature="0" />
    <path
       style="fill:#000000;fill-opacity:1;stroke:#000000;stroke-width:1;stroke-linecap:square;stroke-linejoin:round;stroke-miterlimit:1;stroke-opacity:1;stroke-dasharray:none"
       id="path5105"
       d="m 219.55927,431.62006 c 0.21238,-1.4484 0.38283,-2.90263 0.54848,-4.35701 0.0299,-0.26354 0.0591,-0.52716 0.0851,-0.79111 3.26917,-3.62006 2.43609,-2.33141 1.87343,-0.20366 -0.55542,2.22775 -0.65273,4.53256 -0.74427,6.8163 -0.01,3.2005 0.55569,6.35183 1.12918,9.48733 0.50989,2.9195 1.57712,5.66363 3.02267,8.2368 0.79476,1.60436 1.95601,2.95684 3.19961,4.22483 0.57794,0.6225 1.18797,1.16717 1.94757,1.5503 0.19704,0.0897 0.39693,0.18051 0.61031,0.22241 -2.97009,3.24459 -2.44153,3.06219 -2.45811,1.23122 0,0 2.48092,-2.56907 2.48092,-2.56907 l 0,0 c 0.018,1.98974 -0.0505,1.57676 -2.50373,3.90692 -0.21339,-0.0419 -0.41328,-0.13266 -0.61031,-0.22241 -0.75961,-0.38313 -1.36963,-0.9278 -1.94757,-1.5503 -1.2436,-1.26799 -2.40486,-2.62046 -3.19962,-4.22483 -1.44554,-2.57317 -2.51277,-5.3173 -3.02266,-8.23679 -0.57349,-3.13551 -1.13897,-6.28684 -1.12918,-9.48734 0.0915,-2.28374 0.18884,-4.58854 0.74427,-6.8163 0.62621,-2.36808 0.58175,-2.76337 3.08842,-4.93448 -0.026,0.26395 -0.0553,0.52757 -0.0851,0.79111 -0.16565,1.45438 -0.3361,2.90861 -0.54848,4.35701 0,0 -2.48092,2.56907 -2.48092,2.56907 z"
       inkscape:connector-curvature="0" />
    <path
       style="fill:#000000;fill-opacity:1;stroke:#000000;stroke-width:1;stroke-linecap:square;stroke-linejoin:round;stroke-miterlimit:1;stroke-opacity:1;stroke-dasharray:none"
       id="path5107"
       d="m 488.47246,563.13407 c 1.28722,-1.53204 2.60911,-3.03412 3.96089,-4.50937 1.45589,-1.24952 2.43584,-3.85825 4.29575,-4.26562 -0.36877,0.55679 -0.14067,1.34377 -0.0798,2.00005 0.17406,2.7766 0.25731,5.55235 0.48114,8.32633 0.23267,3.5033 0.70016,6.98959 1.42197,10.42521 0.57064,2.20964 1.46981,4.33095 2.67132,6.27015 0.454,0.75628 1.09201,1.37818 1.87408,1.78558 0.1985,0.1132 0.40547,0.0889 0.62469,0.0794 0.11914,-0.005 0.2381,-0.0137 0.35699,-0.0229 0.0899,-0.0439 -0.16575,0.18871 0.10833,-0.0881 0,0 -2.48092,2.56907 -2.48092,2.56907 l 0,0 c -0.27409,0.2768 -0.0185,0.0442 -0.10833,0.0881 -0.11889,0.009 -0.23785,0.0176 -0.35699,0.0229 -0.21922,0.009 -0.42619,0.0338 -0.6247,-0.0794 -0.78207,-0.4074 -1.42007,-1.0293 -1.87407,-1.78558 -1.20151,-1.9392 -2.10068,-4.06051 -2.67132,-6.27015 -0.72181,-3.43562 -1.18931,-6.9219 -1.42198,-10.4252 -0.22382,-2.77399 -0.30708,-5.54974 -0.48113,-8.32634 -0.0608,-0.65628 -0.28894,-1.44326 0.0798,-2.00005 -1.00586,0.22031 -3.10356,3.00177 1.84768,-2.125 0.11617,-0.12029 -0.23223,0.24073 -0.34764,0.36176 -0.42922,0.45013 -0.40206,0.4243 -0.83395,0.89072 -1.35177,1.47525 -2.67367,2.97732 -3.96089,4.50937 0,0 -2.48092,2.56907 -2.48092,2.56907 z"
       inkscape:connector-curvature="0" />
    <path
       style="fill:#000000;fill-opacity:1;stroke:#000000;stroke-width:1;stroke-linecap:square;stroke-linejoin:round;stroke-miterlimit:1;stroke-opacity:1;stroke-dasharray:none"
       id="path5109"
       d="m 509.59002,559.78821 c -3.02207,2.24093 -5.737,4.85386 -8.53829,7.35589 -3.65339,3.15308 -7.0264,6.60495 -10.4719,9.97794 -0.47964,0.49076 -0.96185,0.97903 -1.43892,1.47229 -0.3985,0.41202 0.66972,-1.0189 1.2032,-1.22858 0.51123,-0.20093 -0.75341,0.79956 -1.12973,1.1997 -0.88829,0.94451 -1.77667,1.88888 -2.66748,2.83102 -0.62978,0.7492 -1.26651,1.51576 -1.7164,2.39117 -0.53033,1.16688 -2.60576,3.66086 -2.50837,1.99827 0,0 2.48092,-2.56907 2.48092,-2.56907 l 0,0 c -0.0756,1.29122 -3.00054,4.63375 -2.45347,3.13987 0.44989,-0.87541 1.08662,-1.64197 1.71639,-2.39116 2.9816,-3.15339 5.9385,-6.33069 8.99478,-9.41258 3.4455,-3.37299 6.81852,-6.82486 10.4719,-9.97794 2.80129,-2.50203 5.51622,-5.11496 8.5383,-7.35589 0,0 -2.48093,2.56907 -2.48093,2.56907 z"
       inkscape:connector-curvature="0" />
    <path
       style="fill:#000000;fill-opacity:1;stroke:#000000;stroke-width:1;stroke-linecap:square;stroke-linejoin:round;stroke-miterlimit:1;stroke-opacity:1;stroke-dasharray:none"
       id="path5111"
       d="m 193.84128,406.67573 c -1.27348,2.45531 -1.71058,5.11729 -1.90682,7.84057 -0.0542,1.84311 0.29643,3.56765 1.19796,5.16624 0.54587,0.76493 1.18049,1.32357 2.12869,0.94606 0.92944,-0.67151 1.98676,-1.46768 -1.6739,1.82062 -0.21087,0.18942 0.33657,-0.45652 0.49245,-0.69326 0.61232,-0.9299 1.09265,-1.91815 1.5804,-2.91639 1.01985,-2.29424 1.66844,-4.70899 2.0895,-7.17686 0.25798,-1.36862 0.64597,-2.71109 0.89909,-4.08022 -0.006,-0.18202 0.30951,-1.05803 -0.0837,-0.95383 -0.88342,0.76146 -2.23401,1.17967 2.12909,-1.97627 0.12364,-0.0894 -0.007,0.30551 0.004,0.45778 0.007,0.1026 0.15692,1.37161 0.15702,1.37245 0.47376,2.9756 1.06141,5.93103 1.56997,8.9008 0.74912,3.85798 1.47178,7.71824 1.92504,11.62333 0.43424,3.61949 0.45397,7.24742 0.0588,10.86699 -0.32763,2.9917 -1.00338,5.95113 -2.15024,8.73558 -1.09204,2.44881 -2.70178,5.40731 -5.29989,6.43803 -1.9133,0.36343 -3.71903,-0.61079 -5.25766,-1.64553 -1.84992,-1.27878 -3.13165,-2.87359 -3.88605,-4.97682 -0.24959,-0.9713 -0.6284,-2.04904 -0.10445,-2.98521 0,0 2.48092,-2.56907 2.48092,-2.56907 l 0,0 c -0.52395,0.93616 -0.14514,2.01391 0.10445,2.98521 0.7544,2.10323 2.03613,3.69804 3.88605,4.97682 1.53864,1.03474 3.34436,2.00896 5.25767,1.64552 1.43495,-0.56926 1.0872,-0.52917 -1.40893,1.88051 -0.17479,0.16874 0.2971,-0.38529 0.42777,-0.5901 0.52026,-0.81546 0.95568,-1.69595 1.3192,-2.59029 1.14686,-2.78445 1.82261,-5.74388 2.15023,-8.73558 0.39515,-3.61957 0.37543,-7.2475 -0.0588,-10.86699 -0.45326,-3.90509 -1.17592,-7.76535 -1.92505,-11.62333 -0.50855,-2.96977 -1.0962,-5.9252 -1.56996,-8.90079 -0.29009,-2.47799 -0.41816,-2.89476 2.67222,-4.99211 0.39324,-0.1042 0.078,0.77181 0.0837,0.95383 -0.25313,1.36913 -0.64112,2.7116 -0.8991,4.08022 -0.42105,2.46787 -1.06965,4.88262 -2.0895,7.17686 -1.30425,2.66926 -2.80727,5.18298 -5.36079,6.92718 -0.9482,0.3775 -1.58283,-0.18114 -2.12869,-0.94607 -0.90153,-1.59858 -1.25212,-3.32313 -1.19796,-5.16624 0.19624,-2.72328 0.63334,-5.38526 1.90682,-7.84057 0,0 2.48092,-2.56907 2.48092,-2.56907 z"
       inkscape:connector-curvature="0" />
    <path
       style="fill:#000000;fill-opacity:1;stroke:#000000;stroke-width:1;stroke-linecap:square;stroke-linejoin:round;stroke-miterlimit:1;stroke-opacity:1;stroke-dasharray:none"
       id="path5113"
       d="m 221.12426,475.27792 c 1.68927,-0.17916 3.34612,-0.44767 4.99065,-0.87195 0.99497,-0.26408 2.01613,-0.39405 3.04174,-0.45232 0.90495,0.0716 1.72979,-0.12283 2.59396,-0.3485 1.19946,-0.27958 2.43522,-0.32207 3.66102,-0.36173 1.21762,-0.15908 2.41225,-0.44714 3.62896,-0.61231 0.90096,-0.15233 1.7628,-0.13542 2.64645,0.0749 1.02136,0.27781 2.06679,0.39471 3.11932,0.46614 1.17284,0.0594 2.34781,0.0526 3.52179,0.0534 1.20027,-6.7e-4 2.40053,-0.003 3.6008,-0.004 1.18287,-9.8e-4 2.36574,-0.001 3.54861,-0.001 1.24522,0.0226 2.45242,-0.34626 3.68042,-0.51763 1.35905,-0.16233 2.72942,-0.17952 4.09631,-0.19537 1.66804,-0.0106 3.33614,-0.006 5.0042,-0.004 1.79295,0.002 3.5859,0.002 5.37885,0.003 1.67053,-0.15452 3.32784,-0.41887 4.99747,-0.58459 1.20909,-0.10615 2.4235,-0.12329 3.63646,-0.13246 1.49755,-0.0442 2.97299,-0.3672 4.46478,-0.51686 1.71484,-0.0373 3.39593,-0.2639 5.08831,-0.51673 1.65029,-0.33232 3.27485,-0.26052 4.9285,-0.0479 1.45945,0.23461 2.9006,0.33238 4.36558,0.13839 1.58719,-0.26054 3.19329,-0.36371 4.79835,-0.4323 1.52103,-0.0534 3.04322,-0.0533 4.56497,-0.0546 1.74912,4.8e-4 3.49824,0.002 5.24736,0.003 1.93379,8.4e-4 3.86759,9.7e-4 5.80139,0.001 1.58086,0.11122 3.11977,-0.0923 4.67642,-0.32345 1.70646,-0.25628 3.43093,-0.32306 5.15329,-0.36723 1.46964,-0.0296 2.93966,-0.0293 4.40953,-0.0282 1.57716,0.002 3.15432,0.003 4.73148,0.004 1.44386,5.6e-4 2.88772,6.6e-4 4.33158,7e-4 1.20188,0.005 2.3702,0.35498 3.55922,0.5176 1.37499,0.16135 2.76097,0.17942 4.14362,0.19537 1.40085,0.01 2.80176,0.006 4.20264,0.004 1.20677,-0.0929 2.3628,0.0636 3.53621,0.32069 0.92525,0.20437 1.86496,0.31158 2.8095,0.36697 0.80201,0.0322 1.60493,0.0293 2.40744,0.0283 0.68161,-0.002 1.36322,-0.003 2.04484,-0.004 1.33888,-7.5e-4 2.67776,-6.6e-4 4.01664,-6.9e-4 1.06472,-2e-5 2.12944,0 3.19415,10e-6 0.59187,10e-6 1.18374,2e-5 1.77561,2e-5 1.10689,0 2.21377,0 3.32066,0 1.17043,0 2.34086,0 3.51129,0 0.82716,0 1.65431,0 2.48147,0 0.65875,0 1.31751,0 1.97626,0 0.74587,0 1.49173,0 2.2376,0 0.99225,-0.005 1.9595,-0.13181 2.95522,-0.10679 0.92927,0.0321 1.8583,0.0712 2.78791,0.0927 0.53697,0.0123 1.07409,0.0142 1.61117,0.0149 0.82441,-0.0722 1.62291,-0.36628 2.44513,-0.51813 0.80236,-0.12942 1.61433,-0.17573 2.4258,-0.19565 0.45405,-0.009 0.9082,-0.006 1.36231,-0.004 0.35083,0.002 0.70167,0.002 1.0525,0.003 0.38999,2.9e-4 0.77997,2.5e-4 1.16996,2.4e-4 0.47646,-10e-6 0.95293,-2e-5 1.4294,-2e-5 0.38982,-10e-6 0.77965,-10e-6 1.16947,-10e-6 0.54869,0 1.09737,0 1.64605,0 0.83372,0.10054 1.58443,-0.23879 2.37604,-0.43026 1.18727,-0.20026 2.3786,-0.21832 3.55691,-0.47793 0.5259,-0.15584 1.06904,-0.24277 1.59519,-0.39599 0,0 -2.48092,2.56907 -2.48092,2.56907 l 0,0 c -0.52615,0.15322 -1.06929,0.24015 -1.59519,0.39599 -1.17831,0.25961 -2.36965,0.27768 -3.55691,0.47794 -0.79161,0.19146 -1.54232,0.53079 -2.37604,0.43025 -0.54869,0 -1.09737,0 -1.64605,0 -0.38983,0 -0.77965,0 -1.16948,10e-6 -0.47646,0 -0.95293,1e-5 -1.4294,3e-5 -0.38998,0 -0.77996,4e-5 -1.16995,-2.5e-4 -0.35084,-3.3e-4 -0.70167,-9.4e-4 -1.05251,-0.003 -0.4541,-0.002 -0.90825,-0.005 -1.3623,0.004 -0.81147,0.0199 -1.62345,0.0662 -2.42581,0.19565 -0.82221,0.15185 -1.62071,0.44594 -2.44512,0.51813 -0.53709,-6.8e-4 -1.0742,-0.003 -1.61118,-0.0149 -0.9296,-0.0215 -1.85864,-0.0605 -2.78791,-0.0927 -0.99571,-0.025 -1.96297,0.10163 -2.95521,0.10679 -0.74587,0 -1.49174,0 -2.2376,0 -0.65876,0 -1.31751,0 -1.97627,0 -0.82715,0 -1.6543,0 -2.48146,0 -1.17043,0 -2.34086,0 -3.51129,0 -1.10689,0 -2.21377,0 -3.32066,0 -0.59187,0 -1.18374,-1e-5 -1.77561,-1e-5 -1.06472,-2e-5 -2.12943,-4e-5 -3.19415,-2e-5 -1.33888,3e-5 -2.67776,-6e-5 -4.01664,6.9e-4 -0.68162,6.3e-4 -1.36323,0.002 -2.04485,0.004 -0.8025,0.001 -1.60543,0.004 -2.40744,-0.0282 -0.94454,-0.0554 -1.88424,-0.1626 -2.80949,-0.36697 -1.17341,-0.25704 -2.32945,-0.4136 -3.53622,-0.32069 -1.40087,0.002 -2.80178,0.006 -4.20263,-0.004 -1.38266,-0.0159 -2.76863,-0.034 -4.14362,-0.19537 -1.18903,-0.16262 -2.35734,-0.51281 -3.55922,-0.5176 -1.44386,-4e-5 -2.88772,-1.4e-4 -4.33158,-6.9e-4 -1.57716,-6.9e-4 -3.15432,-0.002 -4.73148,-0.004 -1.46988,-0.001 -2.93989,-0.001 -4.40953,0.0282 -1.72236,0.0442 -3.44684,0.11096 -5.15329,0.36723 -1.55665,0.23119 -3.09557,0.43467 -4.67643,0.32345 -1.93379,-9e-5 -3.86759,-2.2e-4 -5.80139,-0.001 -1.74911,-8.9e-4 -3.49823,-0.003 -5.24735,-0.003 -1.52175,0.001 -3.04394,0.001 -4.56497,0.0546 -1.60506,0.0686 -3.21117,0.17176 -4.79835,0.4323 -1.46498,0.19399 -2.90613,0.0962 -4.36558,-0.13839 -1.65366,-0.21261 -3.27821,-0.28441 -4.92851,0.0479 -1.69237,0.25284 -3.37347,0.47943 -5.0883,0.51673 -1.4918,0.14966 -2.96724,0.47271 -4.46478,0.51687 -1.21296,0.009 -2.42738,0.0263 -3.63646,0.13245 -1.66963,0.16572 -3.32694,0.43007 -4.99747,0.58459 -1.79295,-3.8e-4 -3.5859,-9.6e-4 -5.37885,-0.003 -1.66807,-0.002 -3.33616,-0.006 -5.0042,0.004 -1.36689,0.0158 -2.73726,0.033 -4.09631,0.19536 -1.228,0.17137 -2.43521,0.54026 -3.68042,0.51763 -1.18287,8e-5 -2.36574,1e-4 -3.54861,0.001 -1.20027,0.001 -2.40054,0.003 -3.60081,0.004 -1.17398,-7.6e-4 -2.34895,0.006 -3.52179,-0.0534 -1.05252,-0.0714 -2.09795,-0.18833 -3.11931,-0.46614 -0.88365,-0.21029 -1.74549,-0.2272 -2.64645,-0.0749 -1.21672,0.16517 -2.41135,0.45323 -3.62896,0.61231 -1.2258,0.0397 -2.46156,0.0821 -3.66103,0.36174 -0.86416,0.22566 -1.68901,0.42008 -2.59396,0.34849 -1.0256,0.0583 -2.04677,0.18824 -3.04173,0.45232 -1.64453,0.42428 -3.30139,0.69279 -4.99065,0.87195 0,0 2.48092,-2.56907 2.48092,-2.56907 z"
       inkscape:connector-curvature="0" />
    <path
       style="fill:#000000;fill-opacity:1;stroke:#000000;stroke-width:1;stroke-linecap:square;stroke-linejoin:round;stroke-miterlimit:1;stroke-opacity:1;stroke-dasharray:none"
       id="path5115"
       d="m 417.58359,469.53288 c -0.28052,1.98498 -0.44268,3.98332 -0.54848,5.98438 -0.0717,1.3499 -0.081,2.7018 -0.0851,4.05323 0.0444,1.01679 -0.31742,1.98662 -0.51443,2.97232 -0.16265,0.94224 -0.1781,1.89899 -0.19385,2.85228 -0.0105,1.16067 -0.006,2.32143 -0.004,3.48213 0.002,1.13911 0.002,2.27821 0.003,3.41732 2.6e-4,1.06013 2.5e-4,2.12025 2.5e-4,3.18038 0.0207,0.94774 0.0499,1.86341 -0.20341,2.78026 -0.30202,0.95514 -0.40596,1.94195 -0.46471,2.93654 -0.026,1.25147 -0.007,2.48041 -0.25465,3.71008 -0.3276,1.14785 -0.33778,2.24511 -0.13721,3.40793 0.22366,1.13306 0.27758,2.28757 0.31701,3.43872 0.0352,1.20185 0.0321,2.40437 0.0322,3.60661 -9.6e-4,1.38685 -0.002,2.77371 -0.003,4.16056 -0.0321,1.27228 -0.0324,2.51906 0.20269,3.77078 0.28823,1.34713 0.39829,2.7195 0.46471,4.09246 0.0105,1.33882 0.37459,2.63953 0.5689,3.95807 0.17347,1.4722 0.17677,2.95843 0.19136,4.43888 -0.0901,1.6097 0.10201,3.18768 0.32668,4.77659 0.20623,1.43771 0.31164,2.887 0.36444,4.33766 0.0298,0.94399 0.0291,1.88858 0.028,2.83293 -0.002,0.83357 -0.003,1.66715 -0.004,2.50072 -6.4e-4,1.06097 -6.6e-4,2.12194 -6.9e-4,3.1829 -10e-6,1.1228 1e-5,2.2456 2e-5,3.36839 1e-5,0.76661 1e-5,1.53322 1e-5,2.29983 0,0.6656 0,1.33119 0,1.99679 0.089,0.63038 -0.15137,1.11447 -0.43025,1.65648 -0.1653,0.40858 -0.24474,0.83599 -0.27456,1.27301 -0.0205,0.44393 -0.0147,0.88868 -0.0133,1.33295 0.002,0.37807 0.003,0.75614 0.003,1.13421 4e-4,0.3705 4.1e-4,0.74101 4.2e-4,1.11152 0,0.30866 -2e-5,0.61732 -2e-5,0.92598 -1e-5,0.2455 -1e-5,0.49099 -1e-5,0.73648 0,0.19743 0,0.39487 0,0.5923 0,0.16261 0,0.32522 0,0.48783 0,0.0156 0,0.0312 0,0.0467 0,0 -2.48093,2.56908 -2.48093,2.56908 l 0,0 c 0,-0.0156 0,-0.0312 0,-0.0467 0,-0.16261 0,-0.32522 0,-0.48783 0,-0.19743 0,-0.39487 0,-0.5923 1e-5,-0.24549 1e-5,-0.49098 1e-5,-0.73648 10e-6,-0.30866 3e-5,-0.61732 3e-5,-0.92598 -10e-6,-0.37051 -2e-5,-0.74102 -4.3e-4,-1.11152 -6.8e-4,-0.37807 -0.002,-0.75614 -0.003,-1.1342 -0.001,-0.44428 -0.007,-0.88903 0.0133,-1.33296 0.0298,-0.43702 0.10925,-0.86443 0.27455,-1.27301 0.27889,-0.54201 0.51923,-1.0261 0.43026,-1.65648 0,-0.6656 0,-1.33119 0,-1.99679 0,-0.76661 -10e-6,-1.53322 -10e-6,-2.29983 -1e-5,-1.12279 -3e-5,-2.24559 -2e-5,-3.36839 3e-5,-1.06096 5e-5,-2.12193 6.9e-4,-3.1829 6.7e-4,-0.83357 0.002,-1.66715 0.004,-2.50072 0.001,-0.94435 0.002,-1.88894 -0.028,-2.83293 -0.0528,-1.45066 -0.1582,-2.89995 -0.36443,-4.33766 -0.22467,-1.58891 -0.41681,-3.16689 -0.32668,-4.77659 -0.0146,-1.48045 -0.0179,-2.96668 -0.19136,-4.43888 -0.19431,-1.31854 -0.5584,-2.61925 -0.56891,-3.95807 -0.0664,-1.37296 -0.17647,-2.74533 -0.4647,-4.09246 -0.23512,-1.25172 -0.2348,-2.4985 -0.20269,-3.77078 6.7e-4,-1.38685 0.002,-2.77371 0.003,-4.16056 -1.1e-4,-1.20224 0.003,-2.40476 -0.0322,-3.60661 -0.0394,-1.15115 -0.0934,-2.30566 -0.31701,-3.43872 -0.20057,-1.16282 -0.19039,-2.26008 0.13721,-3.40793 0.24756,-1.22966 0.22866,-2.45861 0.25465,-3.71007 0.0588,-0.9946 0.16268,-1.98141 0.4647,-2.93655 0.25334,-0.91685 0.22414,-1.83252 0.20341,-2.78026 1e-5,-1.06013 2e-5,-2.12025 -2.4e-4,-3.18038 -3.9e-4,-1.13911 -0.001,-2.27821 -0.003,-3.41732 -0.001,-1.1607 -0.006,-2.32146 0.004,-3.48213 0.0158,-0.95329 0.0312,-1.91004 0.19385,-2.85228 0.19702,-0.9857 0.5588,-1.95553 0.51444,-2.97232 0.004,-1.35143 0.0134,-2.70333 0.0851,-4.05323 0.1058,-2.00106 0.26796,-3.9994 0.54848,-5.98438 0,0 2.48092,-2.56907 2.48092,-2.56907 z"
       inkscape:connector-curvature="0" />
    <path
       style="fill:#000000;fill-opacity:1;stroke:#000000;stroke-width:1;stroke-linecap:square;stroke-linejoin:round;stroke-miterlimit:1;stroke-opacity:1;stroke-dasharray:none"
       id="path5117"
       d="m 221.0186,577.30359 c -1.70315,0.16009 -3.33995,0.64653 -4.83313,1.47501 -1.02824,0.6683 -3.04929,2.49386 1.18723,-1.45272 0.38006,-0.35404 -0.49949,0.7436 -0.78042,1.43663 -0.3868,0.99487 -0.27492,1.91887 -0.0413,2.92404 0.28723,0.8032 0.87258,1.31797 1.6778,1.56007 0.83129,0.14198 1.63676,0.15278 2.38103,-0.26262 0.99051,-0.73762 2.79041,-2.22475 -1.39132,1.58574 -0.1392,0.12684 0.20637,-0.31607 0.29049,-0.48457 0.18615,-0.37291 0.31833,-0.77042 0.47931,-1.15487 0.27536,-1.20323 0.40884,-2.50523 0.17764,-3.72635 -0.16457,-0.71341 -0.31669,-1.38054 -0.92805,-1.8263 -0.49319,-0.20163 -1.03706,-0.18034 -1.56051,-0.18044 -0.44252,-0.0688 -0.84719,-0.12264 -1.30357,-0.0702 -0.20043,0.0289 -0.11256,-0.0126 -0.26285,0.12617 0.76299,-0.75628 1.49185,-1.5486 2.28896,-2.26883 0.10132,-0.0916 -0.12514,0.24283 -0.1834,0.36634 -0.18301,0.3879 -0.14945,0.33128 -0.28246,0.74867 -0.0991,0.92249 0.26237,1.7149 0.64208,2.52501 0.42526,0.60365 0.80458,1.18804 1.49041,1.50531 0.72625,0.0783 1.29494,-0.26564 1.80056,-0.74762 -3.9475,4.15242 -2.19719,2.49611 -1.59733,1.32849 0.2414,-0.46987 0.44106,-0.96849 0.67149,-1.44481 0.31202,-0.67703 0.39687,-1.50942 0.0395,-2.18493 -0.32393,-0.46674 -0.70866,-0.56116 -1.21817,-0.37014 -1.20687,0.52185 -2.84142,2.4193 1.3966,-1.7957 0.23209,-0.23083 -0.38737,0.52883 -0.55652,0.80906 -0.54873,0.90691 -0.66814,1.95759 -0.75364,2.99203 -0.0999,0.86925 -0.0708,1.65555 0.27639,2.45949 0.35834,0.44861 0.92118,0.64915 1.47655,0.53002 0.52151,-0.1566 0.91655,-0.50119 1.30843,-0.86141 -3.56562,3.88588 -2.28013,2.89407 -2.04248,1.29165 0,0 2.48092,-2.56907 2.48092,-2.56907 l 0,0 c -0.26768,1.8049 -1.23457,2.27411 -2.91936,3.84649 -0.39188,0.36022 -0.78692,0.70481 -1.30844,0.86141 -0.55536,0.11913 -1.1182,-0.0814 -1.47655,-0.53002 -0.34721,-0.80394 -0.37625,-1.59024 -0.27638,-2.45948 0.0855,-1.03445 0.20491,-2.08513 0.75364,-2.99203 1.00456,-1.66434 2.37009,-3.27638 4.12177,-4.15151 0.5095,-0.19103 0.89424,-0.0966 1.21817,0.37014 0.35739,0.67551 0.27255,1.5079 -0.0395,2.18493 -1.05541,2.18173 -1.83506,3.56596 -4.036,5.25446 -0.50563,0.48198 -1.07431,0.82595 -1.80056,0.74762 -0.68584,-0.31727 -1.06515,-0.90166 -1.49042,-1.5053 -0.3797,-0.81012 -0.74119,-1.60253 -0.64207,-2.52502 0.52563,-1.64941 1.78164,-3.60425 3.4016,-4.11049 0.45637,-0.0524 0.86104,0.001 1.30356,0.0702 0.52345,10e-5 1.06732,-0.0212 1.56051,0.18044 0.61136,0.44576 0.76348,1.11289 0.92805,1.8263 0.2312,1.22112 0.0977,2.52312 -0.17763,3.72635 -0.89152,2.12914 -2.37242,3.89864 -4.34033,5.19184 -0.74427,0.4154 -1.54974,0.4046 -2.38103,0.26262 -0.80522,-0.2421 -1.39058,-0.75687 -1.6778,-1.56007 -0.23358,-1.00517 -0.34546,-1.92917 0.0413,-2.92404 0.86774,-2.14059 2.68043,-3.82922 4.55504,-5.12205 1.49318,-0.82848 3.12998,-1.31493 4.83313,-1.47501 0,0 -2.48092,2.56907 -2.48092,2.56907 z"
       inkscape:connector-curvature="0" />
    <path
       style="fill:#000000;fill-opacity:1;stroke:#000000;stroke-width:1;stroke-linecap:square;stroke-linejoin:round;stroke-miterlimit:1;stroke-opacity:1;stroke-dasharray:none"
       id="path5119"
       d="m 415.47519,468.35964 c 4.17958,-4.65405 0.0627,0.35626 -0.69175,1.5119 -0.4126,0.68376 -0.68529,1.40627 -0.18438,2.10802 0.34909,0.36474 0.73576,0.55581 1.23457,0.43903 1.04798,-0.48536 3.23267,-2.69874 -1.43175,1.74278 -0.22565,0.21487 0.2932,-0.5515 0.40631,-0.84183 0.30315,-1.00369 0.35147,-2.05202 0.3819,-3.09243 -0.0621,-0.73111 -0.40327,-1.24973 -1.09645,-1.48899 -1.60644,-0.40906 -2.7336,1.77677 1.19629,-2.27048 -0.56875,0.76883 -0.88339,1.67953 -1.18631,2.5776 -0.36969,1.26933 -0.71903,2.56599 -0.27058,3.85346 0.35404,0.76978 0.95073,1.18162 1.79275,1.03618 1.14653,-0.40895 3.3312,-2.5736 -1.04305,1.48701 -0.30774,0.28567 0.44698,-0.71247 0.63511,-1.08786 0.62043,-1.12642 1.02472,-2.32978 1.25913,-3.58882 0.12424,-0.71679 0.0748,-1.49566 -0.56829,-1.9241 -0.56546,-0.25621 -0.9426,-0.1423 -1.45831,0.12731 -1.15479,1.14036 1.92603,-1.9025 2.12622,-2.08016 0.11074,-0.0983 -0.13663,0.26271 -0.20446,0.39432 -0.22505,0.43673 -0.38732,0.85177 -0.52677,1.32319 -0.17098,0.93537 -0.40411,1.91799 -0.23285,2.86641 0.16384,0.76415 0.67727,0.9203 1.38181,1.02091 1.61888,-0.0845 4.80182,-3.72627 0.53515,0.47157 0.76206,-1.11029 1.03563,-2.41864 1.19088,-3.73181 -0.0267,-0.65012 -0.23305,-1.05528 -0.85238,-1.25003 -0.77293,-0.10994 -1.38859,0.55108 -1.93871,0.996 -1.41044,1.43256 1.318,-1.34332 1.78522,-1.73485 0.1463,-0.12261 -0.17364,0.34026 -0.24979,0.51529 -0.20185,0.46391 -0.30807,0.93707 -0.40647,1.43036 -0.0622,0.60855 -0.32774,1.35766 0.28923,1.73744 0.86552,0.30241 1.70565,0.0841 2.55857,-0.13386 0.76015,-0.32323 1.53959,-0.64664 2.18407,-1.17059 -3.96269,4.16576 -2.22466,2.75289 -1.90548,1.35498 0.0243,-0.19544 -0.36114,-0.17356 -0.50531,-0.17898 -0.24565,-0.005 -0.4393,0.26049 -0.60377,0.41512 0,0 2.48092,-2.56907 2.48092,-2.56907 l 0,0 c 0.16448,-0.15463 0.35813,-0.42016 0.60377,-0.41513 0.14417,0.005 0.52958,-0.0164 0.50532,0.17899 -0.37062,1.62318 -1.99505,2.69004 -3.05638,3.78316 -0.64448,0.52395 -1.42391,0.84736 -2.18407,1.1706 -0.85291,0.21795 -1.69304,0.43626 -2.55857,0.13385 -0.61696,-0.37978 -0.35138,-1.12889 -0.28922,-1.73744 0.46108,-2.31147 1.96733,-3.77514 3.83288,-5.34894 0.55012,-0.44492 1.16579,-1.10594 1.93871,-0.996 0.61933,0.19475 0.8257,0.59991 0.85239,1.25002 -0.15525,1.31318 -0.42882,2.62153 -1.19089,3.73182 -1.06809,1.14373 -3.34712,4.39687 -5.49699,4.66657 -0.70454,-0.1006 -1.21797,-0.25676 -1.38181,-1.0209 -0.17126,-0.94843 0.0619,-1.93105 0.23285,-2.86642 0.59262,-2.0034 1.91201,-3.366 3.56685,-4.77549 0.51571,-0.26961 0.89285,-0.38352 1.45832,-0.12732 0.64313,0.42845 0.69252,1.20732 0.56828,1.92411 -0.23441,1.25904 -0.63869,2.4624 -1.25913,3.58882 -0.97821,1.95188 -2.56477,3.83977 -4.5539,4.73899 -0.84202,0.14544 -1.43871,-0.2664 -1.79275,-1.03618 -0.44845,-1.28747 -0.0991,-2.58413 0.27057,-3.85346 0.30293,-0.89807 0.61757,-1.80877 1.18631,-2.5776 1.19858,-1.247 1.98002,-3.3008 3.76556,-2.86766 0.69318,0.23926 1.03434,0.75788 1.09645,1.48899 -0.0304,1.04041 -0.0788,2.08874 -0.3819,3.09243 -0.7056,1.81113 -2.28481,3.28356 -3.9364,4.23719 -0.49881,0.11678 -0.88548,-0.0743 -1.23457,-0.43903 -0.50091,-0.70175 -0.22822,-1.42426 0.18438,-2.10802 1.59987,-2.45056 3.55995,-4.60121 5.65359,-6.65004 0,0 -2.48092,2.56907 -2.48092,2.56907 z"
       inkscape:connector-curvature="0" />
    <path
       style="fill:#000000;fill-opacity:1;stroke:#000000;stroke-width:1;stroke-linecap:square;stroke-linejoin:round;stroke-miterlimit:1;stroke-opacity:1;stroke-dasharray:none"
       id="path5121"
       d="m 237.83991,511.76117 c 0.56352,2.36113 1.15265,4.71592 1.81798,7.0505 0.45583,1.39405 1.03949,2.7457 1.41512,4.16483 0.0764,0.37022 0.12978,0.98382 0.61184,0.62921 0.94199,-0.93502 -1.9676,1.95349 -2.26303,2.21122 -0.0799,0.0697 0.0557,-0.20513 0.0717,-0.30996 0.0777,-0.50791 0.0434,-1.04165 0.0415,-1.55244 0.15153,-1.6423 0.44638,-3.25991 0.94269,-4.8327 0.46307,-1.42639 1.11079,-2.77914 1.5553,-4.21272 0.30697,-0.65359 0.691,-1.26528 0.8929,-1.96138 0.17407,-0.51501 0.61484,-0.94864 0.94755,-1.38505 0.86198,-1.86409 1.28924,-1.87693 3.33571,-3.92095 0.12342,-0.0408 0.4307,-0.30001 0.46873,-0.0818 -0.12188,0.19173 -0.0551,0.081 -0.19513,0.33534 0,0 -2.48093,2.56908 -2.48093,2.56908 l 0,0 c 0.14002,-0.25439 0.0733,-0.14362 0.19514,-0.33535 -0.038,-0.21823 -0.34531,0.0409 -0.46873,0.0818 3.66757,-3.96068 2.2944,-2.77602 1.62614,-1.21719 -0.33271,0.43641 -0.77348,0.87004 -0.94755,1.38504 -0.20191,0.69611 -0.58594,1.3078 -0.89291,1.96139 -0.44451,1.43358 -1.09223,2.78633 -1.5553,4.21272 -0.49631,1.57279 -0.79116,3.1904 -0.94269,4.8327 0.009,2.42301 -0.23987,2.63848 -2.81201,4.78932 -0.48206,0.35461 -0.53541,-0.25899 -0.61184,-0.62921 -0.37563,-1.41913 -0.95929,-2.77078 -1.41512,-4.16483 -0.66533,-2.33458 -1.25446,-4.68937 -1.81798,-7.0505 0,0 2.48092,-2.56907 2.48092,-2.56907 z"
       inkscape:connector-curvature="0" />
    <path
       style="fill:#000000;fill-opacity:1;stroke:#000000;stroke-width:1;stroke-linecap:square;stroke-linejoin:round;stroke-miterlimit:1;stroke-opacity:1;stroke-dasharray:none"
       id="path5123"
       d="m 254.01216,509.53288 c -0.55637,2.2445 -0.89806,4.52772 -1.13331,6.82547 -0.16771,1.92388 -0.20188,3.85551 -0.21753,5.78551 -0.004,0.95357 -0.002,1.90717 0.004,2.86074 5.4e-4,0.1288 0.002,0.25759 0.004,0.38637 -4.43064,4.4299 -2.32697,2.95379 -1.94366,1.72205 0,0 2.48092,-2.56907 2.48092,-2.56907 l 0,0 c -0.46271,1.48688 -2.35935,2.01444 -3.01819,3.4161 -0.002,-0.12879 -0.003,-0.25758 -0.004,-0.38638 -0.006,-0.95357 -0.008,-1.90717 -0.004,-2.86074 0.0157,-1.93 0.0498,-3.86163 0.21753,-5.7855 0.23525,-2.29775 0.57695,-4.58098 1.13332,-6.82548 0,0 2.48092,-2.56907 2.48092,-2.56907 z"
       inkscape:connector-curvature="0" />
    <path
       style="fill:#000000;fill-opacity:1;stroke:#000000;stroke-width:1;stroke-linecap:square;stroke-linejoin:round;stroke-miterlimit:1;stroke-opacity:1;stroke-dasharray:none"
       id="path5125"
       d="m 260.40998,516.62105 c 1.94768,-0.38988 3.63969,-1.28307 5.05785,-2.65714 -3.58408,3.82439 -1.84704,2.09506 -1.36094,0.86392 0.1887,-0.47792 0.27357,-0.96176 0.34743,-1.46666 0.1036,-0.72604 0.0997,-1.32797 -0.59213,-1.69526 -0.66682,-0.20449 -1.37367,-0.17952 -2.06348,-0.18082 -1.17018,0.16824 -2.09973,0.92018 -2.91067,1.7298 3.82888,-4.01204 1.80327,-1.92153 1.23463,-0.69161 -0.35849,0.77539 -0.55385,1.58027 -0.73527,2.40979 -0.29641,1.5221 -0.33663,3.04277 -0.10357,4.57042 0.31195,1.5115 1.27305,2.51894 2.62125,3.17645 1.25356,0.47972 2.55055,0.58386 3.8611,0.3584 1.07579,-0.17487 2.08554,-0.63465 3.01157,-1.19714 0.34844,-0.22073 0.68698,-0.45721 1.00423,-0.72084 0.152,-0.0371 0.25889,-0.14191 0.37276,-0.25608 0,0 -2.48092,2.56907 -2.48092,2.56907 l 0,0 c -0.11387,0.11417 -0.22076,0.21895 -0.37277,0.25608 -0.31724,0.26363 -0.65578,0.50011 -1.00423,0.72084 -0.92602,0.56249 -1.93578,1.02227 -3.01157,1.19714 -1.31055,0.22546 -2.60754,0.12132 -3.8611,-0.3584 -1.34819,-0.65751 -2.30929,-1.66495 -2.62125,-3.17645 -0.23305,-1.52765 -0.19283,-3.04832 0.10358,-4.57042 0.65302,-2.98582 2.07038,-4.71604 4.46249,-6.85632 0.81094,-0.80962 1.74049,-1.56156 2.91067,-1.7298 0.68981,0.001 1.39665,-0.0237 2.06347,0.18082 0.69187,0.36729 0.69573,0.96922 0.59213,1.69526 -0.3744,2.55947 -1.95886,3.91323 -3.94833,5.74088 -1.41816,1.37407 -3.11017,2.26726 -5.05786,2.65714 0,0 2.48093,-2.56907 2.48093,-2.56907 z"
       inkscape:connector-curvature="0" />
    <path
       style="fill:#000000;fill-opacity:1;stroke:#000000;stroke-width:1;stroke-linecap:square;stroke-linejoin:round;stroke-miterlimit:1;stroke-opacity:1;stroke-dasharray:none"
       id="path5127"
       d="m 255.35529,494.61832 c -0.49029,2.01714 -0.83522,4.06577 -1.09696,6.12396 -0.0715,0.62054 -0.14962,1.24114 -0.17021,1.86584 0,0 -2.48092,2.56907 -2.48092,2.56907 l 0,0 c 0.0206,-0.6247 0.0987,-1.2453 0.17021,-1.86584 0.26174,-2.05819 0.60667,-4.10682 1.09696,-6.12396 0,0 2.48092,-2.56907 2.48092,-2.56907 z"
       inkscape:connector-curvature="0" />
    <path
       style="fill:#000000;fill-opacity:1;stroke:#000000;stroke-width:1;stroke-linecap:square;stroke-linejoin:round;stroke-miterlimit:1;stroke-opacity:1;stroke-dasharray:none"
       id="path5129"
       d="m 274.81189,508.18975 c 0,2.58985 0,5.17971 0,7.76957 0,1.96094 0,3.92188 0,5.88282 0.008,0.26401 -0.16008,1.41217 0.43026,1.05345 0.96136,-0.91491 0.3522,-0.33975 -2.12297,2.21004 -0.0865,0.0891 0.17657,-0.17526 0.25462,-0.2718 0.37703,-0.46634 0.62529,-1.00704 0.88045,-1.54426 0.76145,-1.48586 1.27638,-3.08746 1.79329,-4.67224 0.33019,-0.88918 0.71032,-1.76034 1.14485,-2.60353 0.67133,-1.19814 1.95095,-3.46924 3.15459,-2.40891 0.72817,0.94438 1.21145,2.04406 1.76438,3.09359 0.55536,1.07278 1.07064,2.20965 1.89817,3.10373 1.351,1.26683 1.33189,-0.0175 -1.60865,2.80695 0.544,-1.31991 0.88248,-2.67816 1.10243,-4.08643 0.38809,-1.4455 0.55712,-2.94272 0.93153,-4.38883 0.2478,-1.10936 0.62597,-2.16938 1.00367,-3.23762 0.2319,-0.66118 0.38469,-1.35333 0.44744,-2.05136 0.0205,-0.28266 0.0265,-0.56606 0.0226,-0.84934 -0.004,-0.19695 -0.005,-0.39403 -0.006,-0.59104 -1e-4,-0.0219 -2e-4,-0.0438 -3e-4,-0.0657 0,0 2.48092,-2.56907 2.48092,-2.56907 l 0,0 c 1e-4,0.0219 2e-4,0.0438 3e-4,0.0657 0.001,0.19701 0.001,0.39409 0.006,0.59104 0.004,0.28328 -0.002,0.56667 -0.0227,0.84934 -0.0627,0.69803 -0.21554,1.39018 -0.44744,2.05136 -0.37769,1.06824 -0.75586,2.12826 -1.00367,3.23762 -0.37441,1.44611 -0.54343,2.94333 -0.93152,4.38883 -0.21996,1.40827 -0.55843,2.76652 -1.10244,4.08643 -2.3265,2.56433 -1.82199,3.75673 -3.35319,2.33119 -0.82753,-0.89408 -1.34281,-2.03095 -1.89817,-3.10373 -0.55294,-1.04953 -1.03621,-2.14921 -1.76438,-3.09359 -1.36398,-1.20158 2.76524,-4.17378 1.80725,-2.72923 -0.43453,0.84319 -0.81465,1.71435 -1.14484,2.60353 -0.51692,1.58478 -1.03185,3.18638 -1.79329,4.67224 -0.91263,1.92144 -2.33515,3.30291 -3.97396,4.74417 -0.59033,0.35871 -0.42256,-0.78945 -0.43025,-1.05346 0,-1.96094 0,-3.92188 0,-5.88282 0,-2.58986 0,-5.17972 0,-7.76957 0,0 2.48092,-2.56907 2.48092,-2.56907 z"
       inkscape:connector-curvature="0" />
    <path
       style="fill:#000000;fill-opacity:1;stroke:#000000;stroke-width:1;stroke-linecap:square;stroke-linejoin:round;stroke-miterlimit:1;stroke-opacity:1;stroke-dasharray:none"
       id="path5131"
       d="m 295.61162,507.47546 c 0.3609,3.09085 0.4631,6.20334 0.54848,9.31151 -0.0999,3.4008 -0.35932,6.79388 -0.49973,10.19327 -0.0935,2.50542 -0.12205,5.01257 -0.13561,7.51951 -0.004,0.77294 -0.004,1.54588 -7.7e-4,2.31882 7.6e-4,0.21313 0.001,0.42626 0.002,0.63938 1.16598,-1.05102 -2.59885,3.84941 -1.96616,1.50017 0,0 2.48092,-2.56907 2.48092,-2.56907 l 0,0 c -0.41317,1.53415 -1.92008,2.94235 -2.99568,3.63797 -6.4e-4,-0.21312 -0.001,-0.42625 -0.002,-0.63937 -0.003,-0.77295 -0.003,-1.54589 7.7e-4,-2.31883 0.0136,-2.50694 0.0421,-5.01409 0.13561,-7.51951 0.14041,-3.39939 0.39978,-6.79247 0.49973,-10.19327 -0.0854,-3.10817 -0.18758,-6.22066 -0.54849,-9.31151 0,0 2.48093,-2.56907 2.48093,-2.56907 z"
       inkscape:connector-curvature="0" />
    <path
       style="fill:#000000;fill-opacity:1;stroke:#000000;stroke-width:1;stroke-linecap:square;stroke-linejoin:round;stroke-miterlimit:1;stroke-opacity:1;stroke-dasharray:none"
       id="path5133"
       d="m 294.61025,509.30731 c 1.57704,-1.13257 3.16744,-2.25412 4.91828,-3.10223 1.33992,-0.59471 2.79237,-0.75845 4.23963,-0.84007 0.9636,-0.10367 1.46546,0.1902 1.67608,1.11522 0.27291,1.3341 -0.1943,2.53499 -0.73494,3.73299 -1.49993,2.65341 -3.82405,4.76821 -6.07381,6.78125 -1.03946,0.79388 -2.18339,1.45429 -3.35693,2.03187 -0.4469,0.17524 -0.91506,0.3021 -1.39366,0.3478 -1.39119,0.12865 2.33694,-3.62297 2.34351,-2.14054 0.002,0.29291 0.006,0.5858 0.0102,0.87868 0.14091,0.13049 -0.27665,-0.0529 0.0867,0.0803 0,0 -2.48092,2.56907 -2.48092,2.56907 l 0,0 c -0.36334,-0.13316 0.0542,0.0502 -0.0867,-0.0803 -0.004,-0.29288 -0.008,-0.58577 -0.0102,-0.87868 -0.006,-1.34437 1.25841,-3.03992 2.61834,-2.9976 0.47859,-0.0457 0.94675,-0.17256 1.39365,-0.3478 1.17355,-0.57758 2.31747,-1.23799 3.35693,-2.03187 1.4153,-1.26638 0.70686,-0.67158 -1.01205,1.21788 -0.22338,0.24554 0.47249,-0.46735 0.68937,-0.71865 0.56188,-0.65101 1.02506,-1.38922 1.43465,-2.14234 0.54064,-1.198 1.00785,-2.39889 0.73494,-3.73299 -0.21063,-0.92502 -0.71249,-1.21889 -1.67608,-1.11521 -1.44726,0.0816 -2.89971,0.24535 -4.23963,0.84006 -1.75084,0.84811 -3.34124,1.96966 -4.91828,3.10223 0,0 2.48092,-2.56907 2.48092,-2.56907 z"
       inkscape:connector-curvature="0" />
    <path
       style="fill:#000000;fill-opacity:1;stroke:#000000;stroke-width:1;stroke-linecap:square;stroke-linejoin:round;stroke-miterlimit:1;stroke-opacity:1;stroke-dasharray:none"
       id="path5135"
       d="m 311.61298,507.30458 c -1.26193,1.63908 -2.18671,3.46053 -2.77876,5.4359 -0.35051,1.28743 -0.54055,2.56666 0.24623,3.71187 0.7276,0.90984 1.73367,0.93343 2.77598,0.62505 1.3408,-0.62874 2.4903,-1.54867 3.60479,-2.50796 0.55748,-0.50548 3.18362,-2.91177 -1.18949,1.29734 -0.21498,0.20692 0.3996,-0.44374 0.58504,-0.67751 0.52388,-0.66042 0.87978,-1.3401 1.2081,-2.11041 0.55762,-1.43659 0.54818,-2.78081 0.0442,-4.21375 -0.47691,-1.16191 -1.43164,-1.79652 -2.57743,-2.18144 -0.7091,-0.18437 -1.44275,-0.20692 -2.17114,-0.20533 -2.23983,0.56434 2.58409,-3.60789 1.68991,-2.02113 -0.15958,0.44209 -0.0892,0.20539 -0.20208,0.71274 0,0 -2.48093,2.56907 -2.48093,2.56907 l 0,0 c 0.11291,-0.50735 0.0425,-0.27065 0.20208,-0.71274 0.73841,-1.31034 1.71425,-3.10551 3.27194,-3.11701 0.72839,-0.002 1.46204,0.021 2.17115,0.20533 1.14578,0.38491 2.10051,1.01953 2.57742,2.18144 0.50397,1.43294 0.51341,2.77716 -0.0442,4.21375 -1.14715,2.69142 -3.48646,4.65236 -5.56549,6.62872 -1.1145,0.95929 -2.26399,1.87922 -3.60479,2.50796 -1.04231,0.30838 -2.04838,0.28479 -2.77598,-0.62505 -0.78678,-1.14521 -0.59675,-2.42444 -0.24624,-3.71187 0.59206,-1.97537 1.51683,-3.79682 2.77877,-5.4359 0,0 2.48092,-2.56907 2.48092,-2.56907 z"
       inkscape:connector-curvature="0" />
    <path
       style="fill:#000000;fill-opacity:1;stroke:#000000;stroke-width:1;stroke-linecap:square;stroke-linejoin:round;stroke-miterlimit:1;stroke-opacity:1;stroke-dasharray:none"
       id="path5137"
       d="m 324.81189,507.39002 c 0,2.13821 0,4.27643 0,6.41464 0.0122,1.67542 -0.10191,3.34616 0.20338,4.99999 0.18593,0.84213 0.34575,1.68844 0.4647,2.5426 0.3965,1.30238 -2.11347,3.94867 -2.63402,2.30932 -0.38924,-1.42631 -0.45971,-2.92634 -0.38258,-4.3953 0.0815,-1.85797 0.39565,-3.62408 1.02329,-5.36874 0.51039,-1.37935 1.29108,-2.59424 2.13952,-3.78066 1.20189,-1.6232 2.59609,-3.1544 4.35649,-4.16511 0.74884,-0.36408 1.56395,-0.48553 2.38388,-0.5555 0.72232,-0.0586 1.39836,-0.0917 2.07841,0.16813 0,0 -2.48093,2.56907 -2.48093,2.56907 l 0,0 c -0.68005,-0.25987 -1.35608,-0.2267 -2.0784,-0.16813 -0.81993,0.07 -1.63504,0.19142 -2.38388,0.5555 -1.15013,0.66033 0.41572,-0.25055 -0.65068,0.40677 -0.10586,0.0652 -0.40812,0.27453 -0.32631,0.18087 3.92478,-4.4927 2.36179,-2.58051 1.58235,-1.56067 -0.84844,1.18642 -1.62914,2.40131 -2.13952,3.78066 -0.62765,1.74466 -0.94184,3.51077 -1.0233,5.36874 -0.0771,1.46895 -0.007,2.96899 0.38258,4.3953 0.44172,1.39107 -2.34761,4.73794 -2.32782,2.82882 -0.11895,-0.85416 -0.27877,-1.70047 -0.4647,-2.5426 -0.30529,-1.65383 -0.19123,-3.32457 -0.20338,-4.99999 0,-2.13821 0,-4.27643 0,-6.41464 0,0 2.48092,-2.56907 2.48092,-2.56907 z"
       inkscape:connector-curvature="0" />
    <path
       style="fill:#000000;fill-opacity:1;stroke:#000000;stroke-width:1;stroke-linecap:square;stroke-linejoin:round;stroke-miterlimit:1;stroke-opacity:1;stroke-dasharray:none"
       id="path5139"
       d="m 339.69569,506.62105 c 1.99411,-0.66903 3.9737,-1.38705 5.98439,-2.00527 1.01057,-0.31067 2.04805,-0.53264 3.09612,-0.66985 0.11663,-0.0183 0.23434,-0.0242 0.35163,-0.0236 0,0 -2.48093,2.56907 -2.48093,2.56907 l 0,0 c -0.11728,-6.3e-4 -0.23499,0.005 -0.35162,0.0236 -1.04807,0.13721 -2.08555,0.35918 -3.09612,0.66985 -2.01069,0.61822 -3.99028,1.33624 -5.98439,2.00527 0,0 2.48092,-2.56907 2.48092,-2.56907 z"
       inkscape:connector-curvature="0" />
    <path
       style="fill:#000000;fill-opacity:1;stroke:#000000;stroke-width:1;stroke-linecap:square;stroke-linejoin:round;stroke-miterlimit:1;stroke-opacity:1;stroke-dasharray:none"
       id="path5141"
       d="m 342.83991,496.67573 c 0.77682,2.65362 0.81314,5.39114 0.77351,8.1294 -0.0762,2.70991 -0.15539,5.41955 -0.19702,8.13026 -0.0281,2.07426 -0.0324,4.14873 -0.0346,6.22314 -4.2e-4,0.82401 -4.2e-4,1.64802 8.9e-4,2.47203 -3e-5,0.0651 3.2e-4,0.13012 5.6e-4,0.19518 0,0 -2.48092,2.56907 -2.48092,2.56907 l 0,0 c -2.4e-4,-0.0651 -5.9e-4,-0.13012 -5.7e-4,-0.19518 -0.001,-0.82401 -0.001,-1.64802 -8.9e-4,-2.47203 0.002,-2.07441 0.007,-4.14888 0.0346,-6.22314 0.0416,-2.71071 0.12079,-5.42035 0.19701,-8.13026 0.0396,-2.73825 0.003,-5.47578 -0.7735,-8.1294 0,0 2.48092,-2.56907 2.48092,-2.56907 z"
       inkscape:connector-curvature="0" />
    <path
       style="fill:#000000;fill-opacity:1;stroke:#000000;stroke-width:1;stroke-linecap:square;stroke-linejoin:round;stroke-miterlimit:1;stroke-opacity:1;stroke-dasharray:none"
       id="path5143"
       d="m 236.0186,589.61733 c -1.0226,0.50922 -2.08645,0.98791 -3.026,1.64673 -0.33645,0.23592 -1.20366,1.10602 -0.9564,0.77781 0.46197,-0.61324 1.02371,-1.15163 1.61077,-1.64644 0.32185,-0.27127 -0.53892,0.64675 -0.80837,0.97013 -1.69802,2.2677 -1.98421,5.05704 -2.21128,7.79026 -0.04,2.81847 0.24764,5.62418 0.86286,8.37252 0.35089,1.81575 1.08978,3.49095 1.9155,5.12996 0.48185,0.85976 1.14056,1.40552 1.98278,1.8712 0.75661,0.38272 1.54218,0.67908 2.2843,1.0951 0.32486,0.22868 0.63451,0.38053 1.02584,0.43854 0.12807,0.0187 0.25699,0.0228 0.38599,0.0207 -5.82295,5.75418 -1.65381,2.75308 -2.54923,1.91863 -0.15714,-0.0828 -0.33031,-0.0879 -0.50286,-0.0919 0,0 2.48092,-2.56907 2.48092,-2.56907 l 0,0 c 0.17255,0.004 0.34572,0.009 0.50286,0.0919 0.96653,0.90071 -4.6107,5.30709 -2.41261,3.21951 -0.129,0.002 -0.25792,-0.002 -0.386,-0.0207 -0.39133,-0.058 -0.70098,-0.20986 -1.02584,-0.43854 -0.74212,-0.41602 -1.52769,-0.71238 -2.2843,-1.0951 -0.84221,-0.46568 -1.50092,-1.01144 -1.98278,-1.87119 -0.82571,-1.63902 -1.5646,-3.31422 -1.91549,-5.12997 -0.61522,-2.74834 -0.90284,-5.55405 -0.86286,-8.37251 0.22707,-2.73323 0.51325,-5.52257 2.21127,-7.79027 2.34136,-2.80986 4.71049,-5.49303 8.14185,-6.88637 0,0 -2.48092,2.56907 -2.48092,2.56907 z"
       inkscape:connector-curvature="0" />
    <path
       style="fill:#000000;fill-opacity:1;stroke:#000000;stroke-width:1;stroke-linecap:square;stroke-linejoin:round;stroke-miterlimit:1;stroke-opacity:1;stroke-dasharray:none"
       id="path5145"
       d="m 245.30431,598.98848 c -0.2752,0.18574 -0.5609,0.35678 -0.82559,0.55721 -0.3199,0.24223 -0.62986,0.49841 -0.92602,0.76915 -0.30167,0.27577 -1.18319,1.12569 -0.86548,0.86857 0.61143,-0.49483 1.04252,-1.23851 1.74925,-1.58381 0.34872,-0.17038 -0.39102,0.67067 -0.57725,1.0112 -0.1784,0.3262 -0.34429,0.65909 -0.51644,0.98864 -0.74584,1.57727 -1.00394,3.28415 -0.61859,4.98199 0.50056,1.31862 1.55419,1.41469 2.73803,0.96478 -0.61776,1.04084 2.90365,-2.38742 2.05496,-1.44581 -3.61565,4.01155 -1.39429,1.28226 -0.7448,0.2497 0.76745,-1.33883 1.09911,-2.83562 1.24377,-4.35546 0.15769,-0.96488 0.008,-1.82921 -0.27631,-2.74306 -0.17209,-0.62785 -0.61875,-1.143 -1.10469,-1.56086 -0.33092,-0.42316 -0.76728,-0.74801 -1.20769,-1.04925 -0.23447,-0.0663 -0.54645,-0.22208 -0.75718,-0.0595 0,0 2.48092,-2.56907 2.48092,-2.56907 l 0,0 c 0.21073,-0.16258 0.52271,-0.007 0.75718,0.0595 0.44041,0.30124 0.87678,0.62609 1.2077,1.04925 0.48594,0.41785 0.9326,0.93301 1.10468,1.56086 0.28408,0.91385 0.43401,1.77818 0.27631,2.74306 -0.14466,1.51984 -0.47632,3.01663 -1.24376,4.35546 -1.58598,2.52139 -3.67282,4.84531 -6.27202,6.33425 -1.18383,0.44991 -2.23746,0.35384 -2.73802,-0.96478 -0.38535,-1.69784 -0.12725,-3.40472 0.61859,-4.98199 0.13376,-0.25607 0.91916,-1.78959 1.09369,-1.99984 1.71869,-2.07045 3.55688,-4.24288 5.82968,-5.74926 0,0 -2.48092,2.56907 -2.48092,2.56907 z"
       inkscape:connector-curvature="0" />
    <path
       style="fill:#000000;fill-opacity:1;stroke:#000000;stroke-width:1;stroke-linecap:square;stroke-linejoin:round;stroke-miterlimit:1;stroke-opacity:1;stroke-dasharray:none"
       id="path5147"
       d="m 257.83991,605.96145 c 0.46343,2.07148 0.31273,4.15554 -0.1215,6.21126 -0.30005,1.32852 -1.08614,2.42871 -1.71656,3.60683 -1.05477,1.26166 -2.07179,2.77025 -3.54293,3.56189 -0.18694,-0.0221 0.001,-0.22809 0.0728,-0.36831 0,0 2.48092,-2.56907 2.48092,-2.56907 l 0,0 c -0.0717,0.14022 -0.25972,0.34617 -0.0728,0.3683 0.20713,-0.11145 0.73125,-0.58748 0.56928,-0.41693 -2.50084,2.63334 -2.87784,3.14789 -1.9882,1.99319 0.63043,-1.17812 1.41652,-2.2783 1.71657,-3.60683 0.43422,-2.05571 0.58492,-4.13978 0.1215,-6.21126 0,0 2.48092,-2.56907 2.48092,-2.56907 z"
       inkscape:connector-curvature="0" />
    <path
       style="fill:#000000;fill-opacity:1;stroke:#000000;stroke-width:1;stroke-linecap:square;stroke-linejoin:round;stroke-miterlimit:1;stroke-opacity:1;stroke-dasharray:none"
       id="path5149"
       d="m 266.52754,592.30458 c -1.3849,1.975 -2.40984,4.16973 -3.17267,6.45099 -0.48981,1.55981 -0.49865,3.20962 0.0209,4.75656 0.47728,1.05412 1.25094,1.54263 2.37745,1.52586 1.46562,-0.23244 2.64015,-0.96843 3.71648,-1.94888 0.19663,-0.19754 0.78913,-0.78752 0.58989,-0.59262 -3.76535,3.68327 -1.13594,1.28236 -0.37571,-0.40967 0.47559,-1.11147 0.43802,-2.15933 0.19616,-3.30869 -0.39315,-1.04315 -0.92177,-2.04634 -1.47432,-3.01487 -0.45269,-0.90392 -1.08418,-1.68703 -1.83331,-2.35991 -0.37483,-0.24785 -0.79786,-0.41386 -1.24157,-0.4827 -1.08862,-0.0507 -3.38435,3.148 2.01033,-2.28263 0,0 -2.48092,2.56907 -2.48092,2.56907 l 0,0 c 0.55437,-0.58843 1.61108,-2.76656 2.95151,-2.85551 0.44372,0.0688 0.86674,0.23485 1.24158,0.4827 0.74913,0.67288 1.38061,1.45599 1.8333,2.35991 0.55255,0.96853 1.08117,1.97171 1.47433,3.01487 0.24185,1.14936 0.27942,2.19722 -0.19617,3.30869 -1.10757,2.46513 -3.4285,4.1619 -5.17603,6.14043 -1.07633,0.98045 -2.25085,1.71644 -3.71647,1.94888 -1.12652,0.0168 -1.90017,-0.47174 -2.37745,-1.52586 -0.51958,-1.54694 -0.51074,-3.19675 -0.0209,-4.75656 0.76283,-2.28126 1.78776,-4.47599 3.17267,-6.45099 0,0 2.48092,-2.56907 2.48092,-2.56907 z"
       inkscape:connector-curvature="0" />
    <path
       style="fill:#000000;fill-opacity:1;stroke:#000000;stroke-width:1;stroke-linecap:square;stroke-linejoin:round;stroke-miterlimit:1;stroke-opacity:1;stroke-dasharray:none"
       id="path5151"
       d="m 273.9814,586.96281 c 2.40163,0.68288 4.30785,2.16763 5.98439,3.96105 1.97222,2.28966 3.32002,4.91683 4.11122,7.81617 0.5921,3.09834 0.21586,6.13934 -0.95137,9.04329 -1.40064,3.12912 -3.81668,5.27448 -6.16875,7.70665 -0.33317,0.33141 -0.91536,0.99164 -1.04919,0.21438 -0.007,-0.0956 -0.0149,-0.19131 -0.0224,-0.28696 0,0 2.48092,-2.56908 2.48092,-2.56908 l 0,0 c 0.007,0.0957 0.0149,0.19131 0.0224,0.28697 0.13382,0.77726 0.71601,0.11703 1.04918,-0.21438 -0.66951,0.69475 -1.33673,1.3917 -2.00852,2.08424 -0.19547,0.20151 0.38842,-0.40546 0.57952,-0.61111 1.10966,-1.1941 1.91696,-2.58145 2.63591,-4.04163 1.16723,-2.90395 1.54347,-5.94496 0.95137,-9.0433 -0.79121,-2.89934 -2.139,-5.52651 -4.11122,-7.81616 -1.67654,-1.79343 -3.58276,-3.27818 -5.98439,-3.96106 0,0 2.48092,-2.56907 2.48092,-2.56907 z"
       inkscape:connector-curvature="0" />
    <path
       style="fill:#000000;fill-opacity:1;stroke:#000000;stroke-width:1;stroke-linecap:square;stroke-linejoin:round;stroke-miterlimit:1;stroke-opacity:1;stroke-dasharray:none"
       id="path5153"
       d="m 366.0186,424.07392 c -0.30368,0.22505 -0.61591,0.43899 -0.91103,0.67515 -0.74872,0.59912 -2.92593,2.46176 -2.11497,1.95004 0.54539,-0.34414 0.81218,-1.44431 1.43908,-1.29306 0.55575,0.13409 -0.67059,0.92644 -0.98809,1.40187 -0.32155,0.48149 -0.61897,0.97866 -0.92846,1.46799 -1.98271,3.14111 -2.82613,6.6777 -3.07789,10.33986 -0.2147,3.39178 0.46385,6.66066 1.81714,9.75262 0.94497,1.88448 2.18541,3.61069 3.90806,4.84605 1.00119,0.60141 1.96345,0.76104 2.92203,0.04 -3.39045,3.76741 -2.19331,2.54407 -1.74822,1.08845 0,0 2.48092,-2.56907 2.48092,-2.56907 l 0,0 c -0.56726,1.85518 -1.37213,2.36109 -3.21362,4.04969 -0.95858,0.72102 -1.92084,0.56139 -2.92204,-0.04 -1.72264,-1.23536 -2.96309,-2.96157 -3.90806,-4.84605 -1.35329,-3.09196 -2.03184,-6.36084 -1.81713,-9.75262 0.25176,-3.66216 1.09518,-7.19874 3.07789,-10.33986 2.2567,-3.56809 5.05525,-6.82815 8.46531,-9.34013 0,0 -2.48092,2.56907 -2.48092,2.56907 z"
       inkscape:connector-curvature="0" />
    <path
       style="fill:#000000;fill-opacity:1;stroke:#000000;stroke-width:1;stroke-linecap:square;stroke-linejoin:round;stroke-miterlimit:1;stroke-opacity:1;stroke-dasharray:none"
       id="path5155"
       d="m 378.16145,430.41705 c -1.99683,0.99254 -3.89452,2.16176 -5.781,3.3452 -0.58928,0.40436 -1.13332,0.86619 -1.64782,1.36083 -0.12984,0.12482 -0.51037,0.50849 -0.38266,0.38148 2.34968,-2.3369 2.58456,-3.27913 2.17073,-1.93579 -0.0991,0.70094 0.38574,1.3052 0.88876,1.73257 1.05358,0.78389 2.24087,1.38259 3.41773,1.95983 1.53063,0.65807 2.94299,1.45462 4.27312,2.45849 0.96226,0.81175 1.90799,1.7053 2.54078,2.80533 0.93586,1.93622 -2.0182,3.78491 -2.93565,4.73487 -0.85876,0.69826 -1.78932,1.30139 -2.83303,1.67943 -0.94351,0.48784 -1.94529,0.81017 -2.98488,1.01004 -0.90596,0.031 -1.42081,-0.4491 -1.88141,-1.16817 -0.62606,-0.91989 -0.32575,-1.7853 -0.0137,-2.74951 0.55548,-1.48007 1.25927,-2.89472 1.92113,-4.3281 0.5378,-1.35144 1.08885,-2.69558 1.66507,-4.03064 0.48869,-0.99079 1.19909,-1.84908 1.73258,-2.81048 0.79365,-1.52273 2.48779,-2.95799 3.53539,-4.03985 -3.71363,4.13139 -2.03671,2.52006 -1.73291,0.78022 0.056,-0.4559 0.0804,-0.91538 0.0826,-1.37457 -2.4e-4,-0.0239 -4.7e-4,-0.0477 -7.1e-4,-0.0716 0,0 2.48092,-2.56907 2.48092,-2.56907 l 0,0 c 2.4e-4,0.0239 4.8e-4,0.0477 7.2e-4,0.0716 -0.002,0.45919 -0.0266,0.91866 -0.0826,1.37457 -0.35405,2.02762 -1.48894,2.73294 -3.22893,4.35792 4.47834,-4.65221 2.05242,-2.36823 1.42646,-1.09829 -0.53349,0.9614 -1.2439,1.81969 -1.73259,2.81048 -0.57622,1.33506 -1.12726,2.6792 -1.66506,4.03064 -0.66187,1.43338 -1.36566,2.84803 -1.92113,4.3281 -0.31204,0.96421 -0.61236,1.82962 0.0137,2.74951 0.46059,0.71907 0.97544,1.19918 1.8814,1.16817 1.03959,-0.19987 2.04137,-0.5222 2.98489,-1.01004 1.04371,-0.37804 1.97427,-0.98117 2.83302,-1.67943 -4.29064,4.44363 -1.14714,2.0955 -2.02619,0.40327 -0.63279,-1.10003 -1.57852,-1.99358 -2.54079,-2.80533 -1.33013,-1.00387 -2.74248,-1.80042 -4.27311,-2.45849 -1.17686,-0.57724 -2.36415,-1.17594 -3.41773,-1.95983 -0.50302,-0.42737 -0.9879,-1.03163 -0.88877,-1.73257 0.48429,-1.57201 3.29081,-3.7146 4.8216,-4.94466 1.88649,-1.18344 3.78417,-2.35266 5.78101,-3.3452 0,0 -2.48093,2.56907 -2.48093,2.56907 z"
       inkscape:connector-curvature="0" />
    <path
       style="fill:#000000;fill-opacity:1;stroke:#000000;stroke-width:1;stroke-linecap:square;stroke-linejoin:round;stroke-miterlimit:1;stroke-opacity:1;stroke-dasharray:none"
       id="path5157"
       d="m 396.73288,428.73216 c -1.98377,0.19593 -3.94478,0.4798 -5.89895,0.87195 -1.10199,0.22428 -2.24079,0.54283 -3.24848,1.05539 -1.4889,0.72962 -3.02855,2.49473 0.97546,-1.50583 -0.27075,0.4282 -0.22041,0.95093 -0.21422,1.43642 0.0156,0.87214 0.0256,1.74437 0.0315,2.61663 0.003,0.45091 0.005,0.90184 0.005,1.35276 -0.0287,0.17913 0.19829,0.10803 0.32331,0.10647 0.37695,-0.39219 0.85682,-0.62221 1.32839,-0.88127 0.75621,-0.48777 1.51439,-0.35704 2.34453,-0.20496 1.28041,0.38722 2.39572,1.20723 3.32926,2.14646 0.76136,0.80078 1.3738,1.64663 1.72829,2.69381 0.15878,0.83797 0.36407,1.75906 0.16221,2.60348 -0.737,2.04657 -2.75988,3.33785 -4.60091,4.32532 -1.26721,0.68188 -2.67187,0.92203 -4.08504,1.06571 -0.91926,0.081 -1.84252,0.10227 -2.76493,0.10176 -0.28764,-0.0635 -0.80801,0.195 -0.58281,-0.2136 0.11308,-0.1965 0.23401,-0.38519 0.38679,-0.55238 0,0 2.48093,-2.56907 2.48093,-2.56907 l 0,0 c -0.15279,0.16719 -0.27371,0.35587 -0.3868,0.55238 -0.2252,0.40859 0.29517,0.15007 0.58282,0.2136 0.92241,5.1e-4 1.84566,-0.0208 2.76492,-0.10176 1.41317,-0.14368 2.81784,-0.38383 4.08504,-1.06571 0.3552,-0.19052 0.72193,-0.36029 1.06866,-0.56584 0.14332,-0.085 0.52237,-0.40694 0.41356,-0.28076 -3.94662,4.57698 -2.22714,2.79658 -1.84315,1.65942 0.20186,-0.84441 -0.003,-1.76551 -0.16221,-2.60348 -0.3545,-1.04718 -0.96694,-1.89303 -1.72829,-2.69381 -0.93354,-0.93923 -2.04885,-1.75923 -3.32926,-2.14646 -0.83015,-0.15208 -1.58832,-0.28281 -2.34453,0.20496 -0.47157,0.25907 -0.95144,0.48908 -1.32839,0.88127 -0.12502,0.002 -0.35198,0.0727 -0.32331,-0.10647 -6.8e-4,-0.45092 -0.003,-0.90184 -0.005,-1.35276 -0.006,-0.87226 -0.0159,-1.74449 -0.0315,-2.61663 -0.006,-0.48549 -0.0565,-1.00822 0.21421,-1.43642 1.82179,-1.94408 2.15086,-2.65457 3.98639,-3.63231 1.00769,-0.51257 2.14649,-0.83111 3.24849,-1.05539 1.95416,-0.39216 3.91517,-0.67602 5.89894,-0.87195 0,0 -2.48092,2.56907 -2.48092,2.56907 z"
       inkscape:connector-curvature="0" />
    <path
       style="fill:#000000;fill-opacity:1;stroke:#000000;stroke-width:1;stroke-linecap:square;stroke-linejoin:round;stroke-miterlimit:1;stroke-opacity:1;stroke-dasharray:none"
       id="path5159"
       d="m 404.64101,427.39002 c -0.49995,2.16919 -1.08673,4.31892 -1.52722,6.50201 -0.2709,1.42047 -0.38326,2.86386 -0.44477,4.3066 0.0229,0.30117 -0.17349,0.70292 0.19645,0.76572 0.75882,0.0932 1.46042,-0.16235 2.18595,-0.33965 1.23484,-0.38729 2.41848,-0.91713 3.58154,-1.48075 0.73081,-0.47866 1.65523,-0.58407 2.29717,-1.18762 0.1867,-0.15368 0.39414,-0.277 0.60221,-0.39848 0,0 -2.48092,2.56907 -2.48092,2.56907 l 0,0 c -0.20807,0.12148 -0.41551,0.2448 -0.60221,0.39848 -0.64194,0.60355 -1.56636,0.70896 -2.29717,1.18763 -1.16306,0.56361 -2.3467,1.09345 -3.58154,1.48074 -0.72553,0.1773 -1.42714,0.43283 -2.18596,0.33965 -0.36993,-0.0628 -0.17353,-0.46455 -0.19644,-0.76572 0.0615,-1.44274 0.17387,-2.88613 0.44476,-4.3066 0.4405,-2.18309 1.02728,-4.33282 1.52723,-6.50201 0,0 2.48092,-2.56907 2.48092,-2.56907 z"
       inkscape:connector-curvature="0" />
    <path
       style="fill:#000000;fill-opacity:1;stroke:#000000;stroke-width:1;stroke-linecap:square;stroke-linejoin:round;stroke-miterlimit:1;stroke-opacity:1;stroke-dasharray:none"
       id="path5161"
       d="m 412.66903,424.53288 c 0.0389,2.60864 0.0167,5.20612 -0.20338,7.80592 -0.24453,2.69304 -0.33314,5.39121 -0.66808,8.07515 -0.22539,1.6257 -0.3903,3.25865 -0.51596,4.89482 -0.0614,0.41639 -0.0785,0.72245 0.38301,0.80607 1.49761,-0.1741 -2.37543,3.69846 -2.18838,2.01611 0,0 2.48092,-2.56908 2.48092,-2.56908 l 0,0 c -0.15472,1.39164 -1.32896,3.20468 -2.77347,3.12204 -0.46146,-0.0836 -0.44439,-0.38968 -0.38301,-0.80606 0.12567,-1.63618 0.29057,-3.26913 0.51597,-4.89483 0.33494,-2.68394 0.42355,-5.38211 0.66808,-8.07515 0.22008,-2.5998 0.24231,-5.19728 0.20338,-7.80592 0,0 2.48092,-2.56907 2.48092,-2.56907 z"
       inkscape:connector-curvature="0" />
    <path
       style="fill:#000000;fill-opacity:1;stroke:#000000;stroke-width:1;stroke-linecap:square;stroke-linejoin:round;stroke-miterlimit:1;stroke-opacity:1;stroke-dasharray:none"
       id="path5163"
       d="m 422.83992,444.53288 c 0.58474,2.0297 0.93909,4.09896 0.89358,6.21126 -0.098,1.4888 -0.71272,2.6821 -1.63305,3.81428 -1.22467,1.33219 -0.5037,0.55448 -3.15328,3.27734 -0.29655,0.30476 -0.55579,0.52785 -0.9477,0.69273 -0.65866,-0.0331 -0.45908,-0.56085 -0.22802,-0.97719 0,0 2.48092,-2.56908 2.48092,-2.56908 l 0,0 c -0.23106,0.41635 -0.43064,0.94412 0.22802,0.9772 0.27192,-0.1144 0.46416,-0.22754 0.67897,-0.43232 0.0903,-0.0861 0.35483,-0.35067 0.26874,-0.26041 -2.84853,2.98615 -2.76667,2.90302 -1.80857,1.8608 0.92033,-1.13218 1.53502,-2.32548 1.63305,-3.81428 0.0455,-2.1123 -0.30885,-4.18156 -0.89359,-6.21126 0,0 2.48093,-2.56907 2.48093,-2.56907 z"
       inkscape:connector-curvature="0" />
    <path
       style="fill:#000000;fill-opacity:1;stroke:#000000;stroke-width:1;stroke-linecap:square;stroke-linejoin:round;stroke-miterlimit:1;stroke-opacity:1;stroke-dasharray:none"
       id="path5165"
       d="m 431.24046,426.04689 c 0.019,2.56182 -0.30234,5.11099 -0.72101,7.6334 -0.20035,1.81954 -0.6454,3.58502 -1.09033,5.35517 -0.11041,0.44011 -0.22084,0.88022 -0.33009,1.32062 0.23141,-0.2086 0.76974,-0.51236 1.1234,-0.69344 1.22953,-0.65483 2.46921,-1.29457 3.72554,-1.89744 1.33218,-0.58352 2.67468,-1.11695 4.09364,-1.44647 0.62906,-0.147 1.26954,-0.21323 1.91318,-0.24596 0,0 -2.48093,2.56907 -2.48093,2.56907 l 0,0 c -0.64364,0.0327 -1.28411,0.099 -1.91317,0.24596 -1.41897,0.32952 -2.76146,0.86295 -4.09365,1.44647 -1.25633,0.60287 -2.496,1.24261 -3.72553,1.89744 -0.35366,0.18108 -0.892,0.48484 -1.12341,0.69344 0.10926,-0.4404 0.21968,-0.88051 0.33009,-1.32062 0.44494,-1.77015 0.88999,-3.53563 1.09034,-5.35517 0.41866,-2.52241 0.74001,-5.07158 0.72101,-7.6334 0,0 2.48092,-2.56907 2.48092,-2.56907 z"
       inkscape:connector-curvature="0" />
    <path
       style="fill:#000000;fill-opacity:1;stroke:#000000;stroke-width:1;stroke-linecap:square;stroke-linejoin:round;stroke-miterlimit:1;stroke-opacity:1;stroke-dasharray:none"
       id="path5167"
       d="m 439.81189,426.67573 c 0.0799,2.5461 -0.24043,5.07712 -0.43026,7.61177 -0.19529,2.58954 -0.24316,5.18655 -0.27455,7.78223 -0.0148,1.52732 -0.016,3.05471 -0.0133,4.58208 9e-4,0.29176 0.001,0.58352 0.003,0.87527 -0.001,0.004 2e-4,0.009 3e-4,0.0132 -0.76997,0.76308 -1.53994,1.52616 -2.30991,2.28923 0,0 2.48092,-2.56907 2.48092,-2.56907 l 0,0 c -0.81779,0.87853 -2.63196,4.1517 -2.65223,2.83574 -0.002,-0.29175 -0.003,-0.58351 -0.003,-0.87527 -0.003,-1.52737 -0.001,-3.05476 0.0133,-4.58207 0.0314,-2.59569 0.0793,-5.1927 0.27455,-7.78224 0.18983,-2.53465 0.51016,-5.06567 0.43026,-7.61177 0,0 2.48092,-2.56907 2.48092,-2.56907 z"
       inkscape:connector-curvature="0" />
    <path
       style="fill:#000000;fill-opacity:1;stroke:#000000;stroke-width:1;stroke-linecap:square;stroke-linejoin:round;stroke-miterlimit:1;stroke-opacity:1;stroke-dasharray:none"
       id="path5169"
       d="m 448.16145,429.61733 c -2.02206,0.72729 -3.91701,1.74027 -5.781,2.79671 0.21214,-0.66269 -2.16963,1.70706 -1.56238,1.08441 3.51978,-3.609 2.44137,-2.8679 1.9295,-1.62244 0.004,0.73846 0.60148,1.19672 1.19609,1.53019 1.41786,0.54136 2.90762,0.78811 4.37959,1.12035 1.8367,0.32939 3.62568,0.78514 5.30934,1.60188 1.3423,0.72078 2.16352,1.88737 2.55352,3.33231 0.23499,1.0726 0.13606,2.03793 -0.61241,2.86005 -1.76287,1.99832 -2.94662,3.57147 -5.4442,4.03041 -1.0891,0.13267 -2.20979,0.25701 -3.29857,0.0828 -1.09752,-0.19163 -1.52051,-1.17326 -1.87513,-2.12084 -0.3835,-1.28941 -0.81598,-2.52314 -0.79252,-3.88047 0.20791,-1.41837 0.96075,-2.63374 1.68232,-3.84208 0.77323,-1.24533 1.73092,-2.3525 2.71501,-3.43248 1.43485,-1.88646 6.02887,-5.84673 1.0081,-1.13208 -0.18411,0.1729 0.27866,-0.42484 0.45399,-0.60664 0.89805,-0.93117 1.80432,-1.85438 2.70649,-2.78156 -6.30841,5.87288 -2.06976,2.6416 -1.94594,1.75464 0.0177,-0.12706 -0.0691,-0.29112 -0.11407,-0.39906 -0.0746,-0.15335 -0.17412,-0.29089 -0.27618,-0.42647 0,0 2.48092,-2.56907 2.48092,-2.56907 l 0,0 c 0.10206,0.13558 0.20155,0.27312 0.27618,0.42647 0.63603,1.5275 -4.07952,3.08702 -2.90184,3.78256 0.75179,-0.78553 1.49931,-1.57516 2.25536,-2.35658 0.17563,-0.18151 -0.2841,0.41975 -0.45398,0.60664 -0.90371,0.99417 -1.88401,1.91872 -2.75937,2.93793 -0.44182,0.51443 3.34078,-3.48558 1.75127,-1.80586 -0.9841,1.07999 -1.94179,2.18716 -2.71502,3.43249 -0.72157,1.20834 -1.47441,2.42371 -1.68232,3.84208 -0.0235,1.35733 0.40902,2.59105 0.79252,3.88046 0.35462,0.94759 0.77762,1.92922 1.87514,2.12085 1.08878,0.17423 2.20946,0.0499 3.29856,-0.0828 0.57555,-0.10576 1.13103,-0.21263 1.65844,-0.48057 1.13668,-0.57746 2.71663,-2.55412 -1.17608,1.5883 0.74847,-0.82212 0.84739,-1.78744 0.61241,-2.86005 -0.39001,-1.44494 -1.21122,-2.61153 -2.55352,-3.33231 -1.68366,-0.81674 -3.47264,-1.27249 -5.30934,-1.60188 -1.47198,-0.33224 -2.96173,-0.57899 -4.37959,-1.12035 -0.59461,-0.33347 -1.19197,-0.79173 -1.19609,-1.53019 0.82462,-2.00643 2.76597,-3.50495 4.59472,-4.60011 1.864,-1.05644 3.75895,-2.06942 5.78101,-2.79672 0,0 -2.48093,2.56908 -2.48093,2.56908 z"
       inkscape:connector-curvature="0" />
    <path
       style="fill:#000000;fill-opacity:1;stroke:#000000;stroke-width:1;stroke-linecap:square;stroke-linejoin:round;stroke-miterlimit:1;stroke-opacity:1;stroke-dasharray:none"
       id="path5171"
       d="m 461.69842,425.96145 c -0.76262,2.12098 -1.4198,4.3113 -1.56,6.56922 -0.0694,1.61497 0.20524,3.13298 1.01224,4.53246 0.62503,1.05208 1.47767,1.85415 2.61911,2.2915 1.33541,0.44709 2.30061,-0.42846 3.26159,-1.24394 1.81956,-1.73013 -0.80255,0.89323 -1.2724,1.26223 -0.25385,0.19936 0.38402,-0.51934 0.56046,-0.78962 0.52656,-0.8066 0.87148,-1.60907 1.1754,-2.51776 0.77216,-1.76593 0.81254,-3.51588 0.51875,-5.38321 -0.3233,-1.5343 -1.11403,-2.75036 -2.32902,-3.70403 -0.96177,-0.68555 -2.05312,-0.98941 -3.20688,-1.13557 -1.81981,-0.2289 -3.62766,2.41649 0.56476,-1.91643 -0.32822,0.30216 -0.36419,0.66814 -0.42704,1.0856 0,0 -2.48092,2.56907 -2.48092,2.56907 l 0,0 c 0.0628,-0.41746 0.0988,-0.78344 0.42704,-1.0856 1.2307,-1.27655 2.36157,-3.42772 4.39708,-3.22171 1.15376,0.14616 2.24511,0.45002 3.20689,1.13557 1.21498,0.95366 2.00571,2.16973 2.32902,3.70403 0.29378,1.86733 0.2534,3.61728 -0.51875,5.38321 -0.98097,2.9329 -3.10521,5.15574 -5.42531,7.18329 -0.96098,0.81548 -1.92618,1.69104 -3.26159,1.24394 -1.14145,-0.43735 -1.99409,-1.23942 -2.61911,-2.2915 -0.807,-1.39948 -1.08163,-2.91749 -1.01225,-4.53246 0.14021,-2.25792 0.79739,-4.44824 1.56001,-6.56922 0,0 2.48092,-2.56907 2.48092,-2.56907 z"
       inkscape:connector-curvature="0" />
    <path
       style="fill:#000000;fill-opacity:1;stroke:#000000;stroke-width:1;stroke-linecap:square;stroke-linejoin:round;stroke-miterlimit:1;stroke-opacity:1;stroke-dasharray:none"
       id="path5173"
       d="m 471.03882,413.1043 c 2.15396,2.69217 4.33773,5.36214 6.277,8.21484 1.95902,2.88179 3.51209,5.94624 4.07301,9.39976 0.2149,3.04809 -0.81877,5.83221 -2.3743,8.39231 -1.54096,2.37873 -3.6031,4.3248 -5.56304,6.34893 -0.21239,0.12806 -0.47743,0.58311 -0.22417,0.0839 0,0 2.48092,-2.56907 2.48092,-2.56907 l 0,0 c -0.25326,0.4992 0.0118,0.0442 0.22417,-0.0839 -4.97213,5.16586 -0.14038,0.25707 0.6012,-1.21079 1.55553,-2.5601 2.58919,-5.34422 2.3743,-8.39231 -0.56092,-3.45352 -2.11399,-6.51797 -4.07302,-9.39976 -1.93927,-2.8527 -4.12304,-5.52267 -6.27699,-8.21484 0,0 2.48092,-2.56907 2.48092,-2.56907 z"
       inkscape:connector-curvature="0" />
  </g>
</svg>
